Tanklager-Original.ufo
<glyph name="quotedbl" format="2">
  <advance width="310"/>
  <unicode hex="0022"/>
  <outline>
    <contour>
      <point x="30" y="410" type="line"/>
      <point x="120" y="410" type="line"/>
      <point x="130" y="700" type="line"/>
      <point x="30" y="700" type="line"/>
    </contour>
    <contour>
      <point x="180" y="410" type="line"/>
      <point x="270" y="410" type="line"/>
      <point x="280" y="700" type="line"/>
      <point x="180" y="700" type="line"/>
    </contour>
  </outline>
</glyph>
<glyph name="numbersign" format="2">
  <advance width="560"/>
  <unicode hex="0023"/>
  <outline>
    <contour>
      <point x="70" y="-50" type="line"/>
      <point x="181" y="-50" type="line"/>
      <point x="280" y="700" type="line"/>
      <point x="169" y="700" type="line"/>
    </contour>
    <contour>
      <point x="280" y="-50" type="line"/>
      <point x="391" y="-50" type="line"/>
      <point x="490" y="700" type="line"/>
      <point x="379" y="700" type="line"/>
    </contour>
    <contour>
      <point x="20" y="430" type="line"/>
      <point x="540" y="430" type="line"/>
      <point x="540" y="520" type="line"/>
      <point x="20" y="520" type="line"/>
    </contour>
    <contour>
      <point x="20" y="130" type="line"/>
      <point x="540" y="130" type="line"/>
      <point x="540" y="220" type="line"/>
      <point x="20" y="220" type="line"/>
    </contour>
  </outline>
</glyph>
<glyph name="percent" format="2">
  <advance width="722"/>
  <unicode hex="0025"/>
  <outline>
    <contour>
      <point x="195" y="601" type="curve" smooth="yes"/>
      <point x="195" y="509" type="line" smooth="yes"/>
      <point x="195" y="467"/>
      <point x="178" y="454"/>
      <point x="158" y="454" type="curve" smooth="yes"/>
      <point x="139" y="454"/>
      <point x="122" y="467"/>
      <point x="122" y="509" type="curve" smooth="yes"/>
      <point x="122" y="601" type="line" smooth="yes"/>
      <point x="122" y="643"/>
      <point x="139" y="656"/>
      <point x="158" y="656" type="curve" smooth="yes"/>
      <point x="178" y="656"/>
      <point x="195" y="643"/>
    </contour>
    <contour>
      <point x="30" y="611" type="curve" smooth="yes"/>
      <point x="30" y="499" type="line"/>
      <point x="30" y="421"/>
      <point x="67" y="400"/>
      <point x="158" y="400" type="curve" smooth="yes"/>
      <point x="250" y="400"/>
      <point x="287" y="421"/>
      <point x="287" y="499" type="curve" smooth="yes"/>
      <point x="287" y="611" type="line" smooth="yes"/>
      <point x="287" y="688"/>
      <point x="250" y="710"/>
      <point x="158" y="710" type="curve" smooth="yes"/>
      <point x="67" y="710"/>
      <point x="30" y="688"/>
    </contour>
    <contour>
      <point x="66" y="0" type="line"/>
      <point x="207" y="0" type="line"/>
      <point x="646" y="700" type="line"/>
      <point x="505" y="700" type="line"/>
    </contour>
    <contour>
      <point x="600" y="191" type="curve" smooth="yes"/>
      <point x="600" y="99" type="line" smooth="yes"/>
      <point x="600" y="57"/>
      <point x="583" y="44"/>
      <point x="563" y="44" type="curve" smooth="yes"/>
      <point x="544" y="44"/>
      <point x="527" y="57"/>
      <point x="527" y="99" type="curve" smooth="yes"/>
      <point x="527" y="191" type="line" smooth="yes"/>
      <point x="527" y="233"/>
      <point x="544" y="246"/>
      <point x="563" y="246" type="curve" smooth="yes"/>
      <point x="583" y="246"/>
      <point x="600" y="233"/>
    </contour>
    <contour>
      <point x="435" y="201" type="curve" smooth="yes"/>
      <point x="435" y="89" type="line"/>
      <point x="435" y="11"/>
      <point x="472" y="-10"/>
      <point x="563" y="-10" type="curve" smooth="yes"/>
      <point x="655" y="-10"/>
      <point x="692" y="11"/>
      <point x="692" y="89" type="curve" smooth="yes"/>
      <point x="692" y="201" type="line" smooth="yes"/>
      <point x="692" y="278"/>
      <point x="655" y="300"/>
      <point x="563" y="300" type="curve" smooth="yes"/>
      <point x="472" y="300"/>
      <point x="435" y="278"/>
    </contour>
  </outline>
</glyph>
<glyph name="ampersand" format="2">
  <advance width="631"/>
  <unicode hex="0026"/>
  <guideline x="201" y="330"/>
  <guideline x="301" y="670" angle="270"/>
  <outline>
    <contour>
      <point x="382" y="568" type="curve"/>
      <point x="522" y="568" type="line"/>
      <point x="522" y="662"/>
      <point x="471" y="710"/>
      <point x="301" y="710" type="curve"/>
      <point x="301" y="630" type="line"/>
      <point x="351" y="630"/>
      <point x="382" y="615"/>
    </contour>
    <contour>
      <point x="286" y="-10" type="curve"/>
      <point x="286" y="70" type="line"/>
      <point x="236" y="70"/>
      <point x="190" y="85"/>
      <point x="190" y="132" type="curve"/>
      <point x="50" y="132" type="line"/>
      <point x="50" y="38"/>
      <point x="116" y="-10"/>
    </contour>
    <contour>
      <point x="50" y="132" type="line"/>
      <point x="190" y="132" type="line"/>
      <point x="190" y="288" type="line"/>
      <point x="50" y="289" type="line"/>
    </contour>
    <contour>
      <point x="90" y="568" type="curve" smooth="yes"/>
      <point x="90" y="516"/>
      <point x="108" y="485"/>
      <point x="136" y="448" type="curve" smooth="yes"/>
      <point x="475" y="0" type="line"/>
      <point x="615" y="0" type="line"/>
      <point x="269" y="452" type="line" smooth="yes"/>
      <point x="234" y="497"/>
      <point x="230" y="551"/>
      <point x="230" y="568" type="curve" smooth="yes"/>
      <point x="230" y="615"/>
      <point x="261" y="630"/>
      <point x="301" y="630" type="curve"/>
      <point x="301" y="710" type="line"/>
      <point x="151" y="710"/>
      <point x="90" y="662"/>
    </contour>
    <contour>
      <point x="382" y="470" type="line"/>
      <point x="522" y="470" type="line"/>
      <point x="522" y="568" type="line"/>
      <point x="382" y="568" type="line"/>
    </contour>
    <contour>
      <point x="286" y="70" type="curve"/>
      <point x="286" y="-10" type="line"/>
      <point x="436" y="-10"/>
      <point x="512" y="38"/>
      <point x="512" y="132" type="curve"/>
      <point x="372" y="132" type="line"/>
      <point x="372" y="85"/>
      <point x="336" y="70"/>
    </contour>
    <contour>
      <point x="372" y="132" type="line"/>
      <point x="512" y="132" type="line"/>
      <point x="512" y="168" type="line"/>
      <point x="372" y="168" type="line"/>
    </contour>
    <contour>
      <point x="522" y="470" type="curve"/>
      <point x="382" y="470" type="line"/>
      <point x="382" y="423"/>
      <point x="351" y="410"/>
      <point x="301" y="410" type="curve"/>
      <point x="301" y="340" type="line"/>
      <point x="471" y="340"/>
      <point x="522" y="376"/>
    </contour>
    <contour>
      <point x="286" y="340" type="curve"/>
      <point x="286" y="410" type="line"/>
      <point x="116" y="410"/>
      <point x="50" y="382"/>
      <point x="50" y="288" type="curve"/>
      <point x="190" y="288" type="line"/>
      <point x="190" y="335"/>
      <point x="236" y="340"/>
    </contour>
    <contour>
      <point x="372" y="168" type="curve"/>
      <point x="512" y="168" type="line"/>
      <point x="512" y="215"/>
      <point x="533" y="230"/>
      <point x="583" y="230" type="curve"/>
      <point x="583" y="310" type="line"/>
      <point x="433" y="310"/>
      <point x="372" y="262"/>
    </contour>
    <contour>
      <point x="286" y="340" type="line"/>
      <point x="302" y="340" type="line"/>
      <point x="302" y="410" type="line"/>
      <point x="286" y="410" type="line"/>
    </contour>
  </outline>
</glyph>
<glyph name="asterisk" format="2">
  <advance width="328"/>
  <unicode hex="002A"/>
  <guideline x="158" y="600" angle="90"/>
  <outline>
    <contour>
      <point x="129" y="700" type="line"/>
      <point x="129" y="561" type="line"/>
      <point x="194" y="561" type="line"/>
      <point x="194" y="700" type="line"/>
    </contour>
    <contour>
      <point x="47" y="640" type="line"/>
      <point x="26" y="578" type="line"/>
      <point x="150" y="538" type="line"/>
      <point x="170" y="600" type="line"/>
    </contour>
    <contour>
      <point x="56" y="479" type="line"/>
      <point x="108" y="440" type="line"/>
      <point x="190" y="553" type="line"/>
      <point x="137" y="591" type="line"/>
    </contour>
    <contour>
      <point x="281" y="640" type="line"/>
      <point x="158" y="600" type="line"/>
      <point x="178" y="538" type="line"/>
      <point x="302" y="578" type="line"/>
    </contour>
    <contour>
      <point x="272" y="479" type="line"/>
      <point x="191" y="591" type="line"/>
      <point x="138" y="553" type="line"/>
      <point x="220" y="440" type="line"/>
    </contour>
  </outline>
</glyph>
<glyph name="plus" format="2">
  <advance width="372"/>
  <unicode hex="002B"/>
  <outline>
    <contour>
      <point x="141" y="500" type="line"/>
      <point x="141" y="160" type="line"/>
      <point x="231" y="160" type="line"/>
      <point x="231" y="500" type="line"/>
    </contour>
    <contour>
      <point x="356" y="375" type="line"/>
      <point x="16" y="375" type="line"/>
      <point x="16" y="285" type="line"/>
      <point x="356" y="285" type="line"/>
    </contour>
  </outline>
</glyph>
<glyph name="hyphen" format="2">
  <advance width="248"/>
  <unicode hex="002D"/>
  <outline>
    <contour>
      <point x="20" y="234" type="line"/>
      <point x="228" y="234" type="line"/>
      <point x="228" y="299" type="line"/>
      <point x="20" y="299" type="line"/>
    </contour>
  </outline>
</glyph>
<glyph name="period" format="2">
  <advance width="204"/>
  <unicode hex="002E"/>
  <outline>
    <contour>
      <point x="42" y="0" type="line"/>
      <point x="162" y="0" type="line"/>
      <point x="162" y="120" type="line"/>
      <point x="42" y="120" type="line"/>
    </contour>
  </outline>
</glyph>
<glyph name="slash" format="2">
  <advance width="250"/>
  <unicode hex="002F"/>
  <outline>
    <contour>
      <point x="20" y="-50" type="line"/>
      <point x="131" y="-50" type="line"/>
      <point x="230" y="700" type="line"/>
      <point x="119" y="700" type="line"/>
    </contour>
  </outline>
</glyph>
<glyph name="zero" format="2">
  <advance width="522"/>
  <unicode hex="0030"/>
  <outline>
    <contour>
      <point x="352" y="480" type="curve" smooth="yes"/>
      <point x="352" y="220" type="line" smooth="yes"/>
      <point x="352" y="98"/>
      <point x="312" y="70"/>
      <point x="261" y="70" type="curve" smooth="yes"/>
      <point x="210" y="70"/>
      <point x="170" y="98"/>
      <point x="170" y="220" type="curve" smooth="yes"/>
      <point x="170" y="480" type="line" smooth="yes"/>
      <point x="170" y="602"/>
      <point x="210" y="630"/>
      <point x="261" y="630" type="curve" smooth="yes"/>
      <point x="312" y="630"/>
      <point x="352" y="602"/>
    </contour>
    <contour>
      <point x="30" y="480" type="curve" smooth="yes"/>
      <point x="30" y="220" type="line"/>
      <point x="30" y="41"/>
      <point x="137" y="-10"/>
      <point x="261" y="-10" type="curve" smooth="yes"/>
      <point x="385" y="-10"/>
      <point x="492" y="41"/>
      <point x="492" y="220" type="curve" smooth="yes"/>
      <point x="492" y="480" type="line" smooth="yes"/>
      <point x="492" y="659"/>
      <point x="385" y="710"/>
      <point x="261" y="710" type="curve" smooth="yes"/>
      <point x="137" y="710"/>
      <point x="30" y="659"/>
    </contour>
    <contour>
      <point x="213" y="300" type="line"/>
      <point x="309" y="300" type="line"/>
      <point x="309" y="400" type="line"/>
      <point x="213" y="400" type="line"/>
    </contour>
  </outline>
</glyph>
<glyph name="one" format="2">
  <advance width="398"/>
  <unicode hex="0031"/>
  <outline>
    <contour>
      <point x="6" y="368" type="line"/>
      <point x="121" y="346" type="line"/>
      <point x="206" y="700" type="line"/>
      <point x="86" y="700" type="line"/>
    </contour>
    <contour>
      <point x="192" y="0" type="line"/>
      <point x="332" y="0" type="line"/>
      <point x="332" y="700" type="line"/>
      <point x="192" y="700" type="line"/>
    </contour>
  </outline>
</glyph>
<glyph name="two" format="2">
  <advance width="527"/>
  <unicode hex="0032"/>
  <guideline x="417" y="568"/>
  <outline>
    <contour>
      <point x="40" y="0" type="line"/>
      <point x="487" y="0" type="line"/>
      <point x="487" y="90" type="line"/>
      <point x="40" y="90" type="line"/>
    </contour>
    <contour>
      <point x="347" y="568" type="curve"/>
      <point x="487" y="568" type="line"/>
      <point x="487" y="662"/>
      <point x="436" y="710"/>
      <point x="266" y="710" type="curve"/>
      <point x="266" y="630" type="line"/>
      <point x="316" y="630"/>
      <point x="347" y="615"/>
    </contour>
    <contour>
      <point x="45" y="568" type="curve"/>
      <point x="185" y="568" type="line"/>
      <point x="185" y="615"/>
      <point x="216" y="630"/>
      <point x="266" y="630" type="curve"/>
      <point x="266" y="710" type="line"/>
      <point x="96" y="710"/>
      <point x="45" y="662"/>
    </contour>
    <contour>
      <point x="45" y="470" type="line"/>
      <point x="185" y="470" type="line"/>
      <point x="185" y="568" type="line"/>
      <point x="45" y="568" type="line"/>
    </contour>
    <contour>
      <point x="347" y="470" type="line"/>
      <point x="347" y="423"/>
      <point x="322" y="399"/>
      <point x="273" y="379" type="curve" smooth="yes"/>
      <point x="201" y="349" type="line" smooth="yes"/>
      <point x="63" y="291"/>
      <point x="40" y="248"/>
      <point x="40" y="154" type="curve" smooth="yes"/>
      <point x="40" y="66" type="line"/>
      <point x="180" y="66" type="line"/>
      <point x="180" y="154" type="line" smooth="yes"/>
      <point x="180" y="201"/>
      <point x="205" y="224"/>
      <point x="254" y="245" type="curve" smooth="yes"/>
      <point x="326" y="275" type="line" smooth="yes"/>
      <point x="461" y="331"/>
      <point x="487" y="376"/>
      <point x="487" y="470" type="curve" smooth="yes"/>
      <point x="487" y="568" type="line"/>
      <point x="347" y="568" type="line"/>
    </contour>
  </outline>
</glyph>
<glyph name="four" format="2">
  <advance width="468"/>
  <unicode hex="0034"/>
  <outline>
    <contour>
      <point x="26" y="188" type="line"/>
      <point x="146" y="188" type="line"/>
      <point x="275" y="700" type="line"/>
      <point x="155" y="700" type="line"/>
    </contour>
    <contour>
      <point x="26" y="98" type="line"/>
      <point x="442" y="98" type="line"/>
      <point x="442" y="188" type="line"/>
      <point x="26" y="188" type="line"/>
    </contour>
    <contour>
      <point x="262" y="0" type="line"/>
      <point x="402" y="0" type="line"/>
      <point x="402" y="700" type="line"/>
      <point x="262" y="700" type="line"/>
    </contour>
  </outline>
</glyph>
<glyph name="five" format="2">
  <advance width="524"/>
  <unicode hex="0035"/>
  <outline>
    <contour>
      <point x="262" y="70" type="curve"/>
      <point x="262" y="-10" type="line"/>
      <point x="422" y="-10"/>
      <point x="488" y="38"/>
      <point x="488" y="132" type="curve"/>
      <point x="348" y="132" type="line"/>
      <point x="348" y="85"/>
      <point x="302" y="70"/>
    </contour>
    <contour>
      <point x="488" y="132" type="line"/>
      <point x="488" y="338" type="line"/>
      <point x="348" y="338" type="line"/>
      <point x="348" y="132" type="line"/>
    </contour>
    <contour>
      <point x="262" y="-10" type="curve"/>
      <point x="262" y="70" type="line"/>
      <point x="222" y="70"/>
      <point x="176" y="85"/>
      <point x="176" y="132" type="curve"/>
      <point x="36" y="132" type="line"/>
      <point x="36" y="38"/>
      <point x="102" y="-10"/>
    </contour>
    <contour>
      <point x="36" y="132" type="line"/>
      <point x="176" y="132" type="line"/>
      <point x="176" y="230" type="line"/>
      <point x="36" y="230" type="line"/>
    </contour>
    <contour>
      <point x="176" y="348" type="line"/>
      <point x="176" y="700" type="line"/>
      <point x="36" y="700" type="line"/>
      <point x="36" y="348" type="line"/>
    </contour>
    <contour>
      <point x="348" y="338" type="curve"/>
      <point x="488" y="338" type="line"/>
      <point x="488" y="465"/>
      <point x="382" y="498"/>
      <point x="290" y="498" type="curve" smooth="yes"/>
      <point x="207" y="498"/>
      <point x="126" y="471"/>
      <point x="126" y="348" type="curve"/>
      <point x="176" y="348" type="line"/>
      <point x="176" y="395"/>
      <point x="222" y="408"/>
      <point x="262" y="408" type="curve" smooth="yes"/>
      <point x="302" y="408"/>
      <point x="348" y="395"/>
    </contour>
    <contour>
      <point x="66" y="610" type="line"/>
      <point x="473" y="610" type="line"/>
      <point x="473" y="700" type="line"/>
      <point x="66" y="700" type="line"/>
    </contour>
  </outline>
</glyph>
<glyph name="six" format="2">
  <advance width="532"/>
  <unicode hex="0036"/>
  <outline>
    <contour>
      <point x="266" y="70" type="curve"/>
      <point x="266" y="-10" type="line"/>
      <point x="426" y="-10"/>
      <point x="492" y="38"/>
      <point x="492" y="132" type="curve"/>
      <point x="352" y="132" type="line"/>
      <point x="352" y="85"/>
      <point x="306" y="70"/>
    </contour>
    <contour>
      <point x="492" y="132" type="line"/>
      <point x="492" y="298" type="line"/>
      <point x="352" y="298" type="line"/>
      <point x="352" y="132" type="line"/>
    </contour>
    <contour>
      <point x="492" y="510" type="line"/>
      <point x="492" y="570" type="line"/>
      <point x="352" y="570" type="line"/>
      <point x="352" y="510" type="line"/>
    </contour>
    <contour>
      <point x="266" y="-10" type="curve"/>
      <point x="266" y="70" type="line"/>
      <point x="226" y="70"/>
      <point x="180" y="85"/>
      <point x="180" y="132" type="curve"/>
      <point x="40" y="132" type="line"/>
      <point x="40" y="38"/>
      <point x="106" y="-10"/>
    </contour>
    <contour>
      <point x="40" y="132" type="line"/>
      <point x="180" y="132" type="line"/>
      <point x="180" y="308" type="line"/>
      <point x="40" y="308" type="line"/>
    </contour>
    <contour>
      <point x="266" y="710" type="curve"/>
      <point x="266" y="630" type="line"/>
      <point x="306" y="630"/>
      <point x="352" y="617"/>
      <point x="352" y="570" type="curve"/>
      <point x="492" y="570" type="line"/>
      <point x="492" y="664"/>
      <point x="426" y="710"/>
    </contour>
    <contour>
      <point x="266" y="630" type="curve"/>
      <point x="266" y="710" type="line"/>
      <point x="106" y="710"/>
      <point x="40" y="664"/>
      <point x="40" y="570" type="curve"/>
      <point x="180" y="570" type="line"/>
      <point x="180" y="617"/>
      <point x="226" y="630"/>
    </contour>
    <contour>
      <point x="180" y="308" type="line"/>
      <point x="180" y="570" type="line"/>
      <point x="40" y="570" type="line"/>
      <point x="40" y="308" type="line"/>
    </contour>
    <contour>
      <point x="352" y="298" type="curve"/>
      <point x="492" y="298" type="line"/>
      <point x="492" y="425"/>
      <point x="386" y="458"/>
      <point x="294" y="458" type="curve" smooth="yes"/>
      <point x="211" y="458"/>
      <point x="130" y="431"/>
      <point x="130" y="308" type="curve"/>
      <point x="180" y="308" type="line"/>
      <point x="180" y="355"/>
      <point x="226" y="368"/>
      <point x="266" y="368" type="curve" smooth="yes"/>
      <point x="306" y="368"/>
      <point x="352" y="355"/>
    </contour>
  </outline>
</glyph>
<glyph name="seven" format="2">
  <advance width="448"/>
  <unicode hex="0037"/>
  <outline>
    <contour>
      <point x="26" y="610" type="line"/>
      <point x="322" y="610" type="line"/>
      <point x="322" y="700" type="line"/>
      <point x="26" y="700" type="line"/>
    </contour>
    <contour>
      <point x="92" y="0" type="line"/>
      <point x="232" y="0" type="line"/>
      <point x="422" y="700" type="line"/>
      <point x="282" y="700" type="line"/>
    </contour>
  </outline>
</glyph>
<glyph name="eight" format="2">
  <advance width="552"/>
  <unicode hex="0038"/>
  <guideline x="276" y="375" angle="90"/>
  <guideline x="291" y="330"/>
  <outline>
    <contour>
      <point x="357" y="568" type="curve"/>
      <point x="497" y="568" type="line"/>
      <point x="497" y="662"/>
      <point x="446" y="710"/>
      <point x="276" y="710" type="curve"/>
      <point x="276" y="630" type="line"/>
      <point x="326" y="630"/>
      <point x="357" y="615"/>
    </contour>
    <contour>
      <point x="276" y="-10" type="curve"/>
      <point x="276" y="70" type="line"/>
      <point x="226" y="70"/>
      <point x="180" y="85"/>
      <point x="180" y="132" type="curve"/>
      <point x="40" y="132" type="line"/>
      <point x="40" y="38"/>
      <point x="106" y="-10"/>
    </contour>
    <contour>
      <point x="40" y="132" type="line"/>
      <point x="180" y="132" type="line"/>
      <point x="180" y="268" type="line"/>
      <point x="40" y="269" type="line"/>
    </contour>
    <contour>
      <point x="55" y="568" type="curve"/>
      <point x="195" y="568" type="line"/>
      <point x="195" y="615"/>
      <point x="226" y="630"/>
      <point x="276" y="630" type="curve"/>
      <point x="276" y="710" type="line"/>
      <point x="106" y="710"/>
      <point x="55" y="662"/>
    </contour>
    <contour>
      <point x="357" y="470" type="line"/>
      <point x="497" y="470" type="line"/>
      <point x="497" y="568" type="line"/>
      <point x="357" y="568" type="line"/>
    </contour>
    <contour>
      <point x="55" y="470" type="line"/>
      <point x="195" y="470" type="line"/>
      <point x="195" y="568" type="line"/>
      <point x="55" y="569" type="line"/>
    </contour>
    <contour>
      <point x="195" y="470" type="curve"/>
      <point x="55" y="470" type="line"/>
      <point x="55" y="376"/>
      <point x="106" y="350"/>
      <point x="276" y="350" type="curve"/>
      <point x="276" y="400" type="line"/>
      <point x="226" y="400"/>
      <point x="195" y="423"/>
    </contour>
    <contour>
      <point x="497" y="470" type="curve"/>
      <point x="357" y="470" type="line"/>
      <point x="357" y="423"/>
      <point x="326" y="400"/>
      <point x="276" y="400" type="curve"/>
      <point x="276" y="350" type="line"/>
      <point x="446" y="350"/>
      <point x="497" y="376"/>
    </contour>
    <contour>
      <point x="276" y="70" type="curve"/>
      <point x="276" y="-10" type="line"/>
      <point x="446" y="-10"/>
      <point x="512" y="38"/>
      <point x="512" y="132" type="curve"/>
      <point x="372" y="132" type="line"/>
      <point x="372" y="85"/>
      <point x="326" y="70"/>
    </contour>
    <contour>
      <point x="512" y="132" type="line"/>
      <point x="512" y="269" type="line"/>
      <point x="372" y="268" type="line"/>
      <point x="372" y="132" type="line"/>
    </contour>
    <contour>
      <point x="276" y="330" type="curve"/>
      <point x="276" y="370" type="line"/>
      <point x="106" y="370"/>
      <point x="40" y="362"/>
      <point x="40" y="268" type="curve"/>
      <point x="180" y="268" type="line"/>
      <point x="180" y="315"/>
      <point x="226" y="330"/>
    </contour>
    <contour>
      <point x="276" y="370" type="curve"/>
      <point x="276" y="330" type="line"/>
      <point x="326" y="330"/>
      <point x="372" y="315"/>
      <point x="372" y="268" type="curve"/>
      <point x="512" y="268" type="line"/>
      <point x="512" y="362"/>
      <point x="446" y="370"/>
    </contour>
  </outline>
</glyph>
<glyph name="nine" format="2">
  <advance width="532"/>
  <unicode hex="0039"/>
  <outline>
    <contour>
      <point x="266" y="630" type="curve"/>
      <point x="266" y="710" type="line"/>
      <point x="106" y="710"/>
      <point x="40" y="662"/>
      <point x="40" y="568" type="curve"/>
      <point x="180" y="568" type="line"/>
      <point x="180" y="615"/>
      <point x="226" y="630"/>
    </contour>
    <contour>
      <point x="40" y="568" type="line"/>
      <point x="40" y="402" type="line"/>
      <point x="180" y="402" type="line"/>
      <point x="180" y="568" type="line"/>
    </contour>
    <contour>
      <point x="40" y="190" type="line"/>
      <point x="40" y="130" type="line"/>
      <point x="180" y="130" type="line"/>
      <point x="180" y="190" type="line"/>
    </contour>
    <contour>
      <point x="266" y="710" type="curve"/>
      <point x="266" y="630" type="line"/>
      <point x="306" y="630"/>
      <point x="352" y="615"/>
      <point x="352" y="568" type="curve"/>
      <point x="492" y="568" type="line"/>
      <point x="492" y="662"/>
      <point x="426" y="710"/>
    </contour>
    <contour>
      <point x="492" y="568" type="line"/>
      <point x="352" y="568" type="line"/>
      <point x="352" y="392" type="line"/>
      <point x="492" y="392" type="line"/>
    </contour>
    <contour>
      <point x="266" y="-10" type="curve"/>
      <point x="266" y="70" type="line"/>
      <point x="226" y="70"/>
      <point x="180" y="83"/>
      <point x="180" y="130" type="curve"/>
      <point x="40" y="130" type="line"/>
      <point x="40" y="36"/>
      <point x="106" y="-10"/>
    </contour>
    <contour>
      <point x="266" y="70" type="curve"/>
      <point x="266" y="-10" type="line"/>
      <point x="426" y="-10"/>
      <point x="492" y="36"/>
      <point x="492" y="130" type="curve"/>
      <point x="352" y="130" type="line"/>
      <point x="352" y="83"/>
      <point x="306" y="70"/>
    </contour>
    <contour>
      <point x="352" y="392" type="line"/>
      <point x="352" y="130" type="line"/>
      <point x="492" y="130" type="line"/>
      <point x="492" y="392" type="line"/>
    </contour>
    <contour>
      <point x="180" y="402" type="curve"/>
      <point x="40" y="402" type="line"/>
      <point x="40" y="275"/>
      <point x="146" y="242"/>
      <point x="238" y="242" type="curve" smooth="yes"/>
      <point x="321" y="242"/>
      <point x="402" y="269"/>
      <point x="402" y="392" type="curve"/>
      <point x="352" y="392" type="line"/>
      <point x="352" y="345"/>
      <point x="306" y="332"/>
      <point x="266" y="332" type="curve" smooth="yes"/>
      <point x="226" y="332"/>
      <point x="180" y="345"/>
    </contour>
  </outline>
</glyph>
<glyph name="colon" format="2">
  <advance width="204"/>
  <unicode hex="003A"/>
  <guideline x="102" y="120" angle="180"/>
  <outline>
    <contour>
      <point x="42" y="350" type="line"/>
      <point x="162" y="350" type="line"/>
      <point x="162" y="470" type="line"/>
      <point x="42" y="470" type="line"/>
    </contour>
    <contour>
      <point x="42" y="0" type="line"/>
      <point x="162" y="0" type="line"/>
      <point x="162" y="120" type="line"/>
      <point x="42" y="120" type="line"/>
    </contour>
  </outline>
</glyph>
<glyph name="semicolon" format="2">
  <advance width="204"/>
  <unicode hex="003B"/>
  <outline>
    <contour>
      <point x="42" y="350" type="line"/>
      <point x="162" y="350" type="line"/>
      <point x="162" y="470" type="line"/>
      <point x="42" y="470" type="line"/>
    </contour>
    <contour>
      <point x="20" y="-170" type="line"/>
      <point x="120" y="-170" type="line"/>
      <point x="148" y="120" type="line"/>
      <point x="48" y="120" type="line"/>
    </contour>
  </outline>
</glyph>
<glyph name="less" format="2">
  <advance width="396"/>
  <unicode hex="003C"/>
  <outline>
    <contour>
      <point x="376" y="-10" type="line"/>
      <point x="376" y="117" type="line"/>
      <point x="16" y="307" type="line"/>
      <point x="16" y="180" type="line"/>
    </contour>
    <contour>
      <point x="376" y="524" type="line"/>
      <point x="16" y="334" type="line"/>
      <point x="16" y="207" type="line"/>
      <point x="376" y="397" type="line"/>
    </contour>
  </outline>
</glyph>
<glyph name="equal" format="2">
  <advance width="312"/>
  <unicode hex="003D"/>
  <outline>
    <contour>
      <point x="296" y="470" type="line"/>
      <point x="16" y="470" type="line"/>
      <point x="16" y="380" type="line"/>
      <point x="296" y="380" type="line"/>
    </contour>
    <contour>
      <point x="296" y="280" type="line"/>
      <point x="16" y="280" type="line"/>
      <point x="16" y="190" type="line"/>
      <point x="296" y="190" type="line"/>
    </contour>
  </outline>
</glyph>
<glyph name="greater" format="2">
  <advance width="396"/>
  <unicode hex="003E"/>
  <outline>
    <contour>
      <point x="20" y="-10" type="line"/>
      <point x="380" y="180" type="line"/>
      <point x="380" y="307" type="line"/>
      <point x="20" y="117" type="line"/>
    </contour>
    <contour>
      <point x="20" y="524" type="line"/>
      <point x="20" y="397" type="line"/>
      <point x="380" y="207" type="line"/>
      <point x="380" y="334" type="line"/>
    </contour>
  </outline>
</glyph>
<glyph name="question" format="2">
  <advance width="514"/>
  <unicode hex="003F"/>
  <guideline x="227" y="180"/>
  <guideline x="176" y="519" angle="90"/>
  <outline>
    <contour>
      <point x="176" y="0" type="line"/>
      <point x="316" y="0" type="line"/>
      <point x="316" y="120" type="line"/>
      <point x="176" y="120" type="line"/>
    </contour>
    <contour>
      <point x="338" y="568" type="curve"/>
      <point x="478" y="568" type="line"/>
      <point x="478" y="662"/>
      <point x="427" y="710"/>
      <point x="257" y="710" type="curve"/>
      <point x="257" y="630" type="line"/>
      <point x="307" y="630"/>
      <point x="338" y="615"/>
    </contour>
    <contour>
      <point x="36" y="568" type="curve"/>
      <point x="176" y="568" type="line"/>
      <point x="176" y="615"/>
      <point x="207" y="630"/>
      <point x="257" y="630" type="curve"/>
      <point x="257" y="710" type="line"/>
      <point x="87" y="710"/>
      <point x="36" y="662"/>
    </contour>
    <contour>
      <point x="36" y="470" type="line"/>
      <point x="176" y="470" type="line"/>
      <point x="176" y="568" type="line"/>
      <point x="36" y="568" type="line"/>
    </contour>
    <contour>
      <point x="295" y="455" type="curve" smooth="yes"/>
      <point x="281" y="447" type="line" smooth="yes"/>
      <point x="184" y="391"/>
      <point x="176" y="363"/>
      <point x="176" y="268" type="curve" smooth="yes"/>
      <point x="176" y="180" type="line"/>
      <point x="316" y="180" type="line"/>
      <point x="316" y="268" type="line" smooth="yes"/>
      <point x="316" y="308"/>
      <point x="315" y="331"/>
      <point x="350" y="350" type="curve" smooth="yes"/>
      <point x="361" y="356" type="line" smooth="yes"/>
      <point x="460" y="410"/>
      <point x="478" y="450"/>
      <point x="478" y="534" type="curve" smooth="yes"/>
      <point x="478" y="568" type="line"/>
      <point x="338" y="568" type="line"/>
      <point x="338" y="534" type="line" smooth="yes"/>
      <point x="338" y="496"/>
      <point x="327" y="473"/>
    </contour>
  </outline>
</glyph>
<glyph name="at" format="2">
  <advance width="675"/>
  <unicode hex="0040"/>
  <outline>
    <contour>
      <point x="339" y="-10" type="curve" smooth="yes"/>
      <point x="549" y="-10"/>
      <point x="635" y="48"/>
      <point x="635" y="122" type="curve" smooth="yes"/>
      <point x="635" y="126" type="line"/>
      <point x="500" y="126" type="line"/>
      <point x="500" y="122" type="line" smooth="yes"/>
      <point x="500" y="95"/>
      <point x="449" y="70"/>
      <point x="339" y="70" type="curve" smooth="yes"/>
      <point x="229" y="70"/>
      <point x="172" y="105"/>
      <point x="172" y="152" type="curve" smooth="yes"/>
      <point x="172" y="558" type="line" smooth="yes"/>
      <point x="172" y="605"/>
      <point x="229" y="630"/>
      <point x="339" y="630" type="curve" smooth="yes"/>
      <point x="449" y="630"/>
      <point x="510" y="595"/>
      <point x="510" y="548" type="curve" smooth="yes"/>
      <point x="510" y="243" type="line" smooth="yes"/>
      <point x="510" y="231"/>
      <point x="494" y="224"/>
      <point x="481" y="224" type="curve" smooth="yes"/>
      <point x="469" y="224"/>
      <point x="452" y="231"/>
      <point x="452" y="243" type="curve" smooth="yes"/>
      <point x="452" y="548" type="line"/>
      <point x="380" y="548" type="line"/>
      <point x="380" y="520" type="line"/>
      <point x="371" y="541"/>
      <point x="346" y="555"/>
      <point x="318" y="555" type="curve" smooth="yes"/>
      <point x="265" y="555"/>
      <point x="226" y="522"/>
      <point x="226" y="428" type="curve" smooth="yes"/>
      <point x="226" y="281" type="line" smooth="yes"/>
      <point x="226" y="187"/>
      <point x="265" y="154"/>
      <point x="318" y="154" type="curve" smooth="yes"/>
      <point x="346" y="154"/>
      <point x="371" y="178"/>
      <point x="380" y="199" type="curve"/>
      <point x="380" y="195" type="line" smooth="yes"/>
      <point x="380" y="167"/>
      <point x="443" y="154"/>
      <point x="497" y="154" type="curve" smooth="yes"/>
      <point x="560" y="154"/>
      <point x="635" y="177"/>
      <point x="635" y="262" type="curve" smooth="yes"/>
      <point x="635" y="548" type="line" smooth="yes"/>
      <point x="635" y="642"/>
      <point x="549" y="710"/>
      <point x="339" y="710" type="curve" smooth="yes"/>
      <point x="130" y="710"/>
      <point x="40" y="651"/>
      <point x="40" y="558" type="curve" smooth="yes"/>
      <point x="40" y="152" type="line" smooth="yes"/>
      <point x="40" y="59"/>
      <point x="130" y="-10"/>
    </contour>
    <contour>
      <point x="310" y="281" type="curve" smooth="yes"/>
      <point x="310" y="428" type="line" smooth="yes"/>
      <point x="310" y="459"/>
      <point x="321" y="468"/>
      <point x="334" y="468" type="curve" smooth="yes"/>
      <point x="352" y="468"/>
      <point x="368" y="458"/>
      <point x="368" y="417" type="curve" smooth="yes"/>
      <point x="368" y="292" type="line" smooth="yes"/>
      <point x="368" y="251"/>
      <point x="352" y="241"/>
      <point x="334" y="241" type="curve" smooth="yes"/>
      <point x="321" y="241"/>
      <point x="310" y="250"/>
    </contour>
  </outline>
</glyph>
<glyph name="A" format="2">
  <advance width="561"/>
  <unicode hex="0041"/>
  <anchor x="268" y="0" name="bottom"/>
  <anchor x="505" y="10" name="ogonek"/>
  <anchor x="280" y="700" name="top"/>
  <outline>
    <contour>
      <point x="402" y="0" type="line"/>
      <point x="535" y="0" type="line"/>
      <point x="389" y="700" type="line"/>
      <point x="256" y="700" type="line"/>
    </contour>
    <contour>
      <point x="110" y="98" type="line"/>
      <point x="387" y="98" type="line"/>
      <point x="387" y="188" type="line"/>
      <point x="110" y="188" type="line"/>
    </contour>
    <contour>
      <point x="20" y="0" type="line"/>
      <point x="134" y="0" type="line"/>
      <point x="280" y="700" type="line"/>
      <point x="166" y="700" type="line"/>
    </contour>
  </outline>
</glyph>
<glyph name="B" format="2">
  <advance width="568"/>
  <unicode hex="0042"/>
  <guideline x="200" y="371" angle="180"/>
  <anchor x="287" y="0" name="bottom"/>
  <anchor x="287" y="350" name="center"/>
  <anchor x="287" y="700" name="top"/>
  <outline>
    <contour>
      <point x="66" y="0" type="line"/>
      <point x="206" y="0" type="line"/>
      <point x="206" y="700" type="line"/>
      <point x="66" y="700" type="line"/>
    </contour>
    <contour>
      <point x="312" y="90" type="curve"/>
      <point x="312" y="0" type="line"/>
      <point x="424" y="0"/>
      <point x="528" y="55"/>
      <point x="528" y="206" type="curve" smooth="yes"/>
      <point x="528" y="359"/>
      <point x="451" y="379"/>
      <point x="287" y="379" type="curve"/>
      <point x="287" y="329" type="line"/>
      <point x="345" y="329"/>
      <point x="388" y="285"/>
      <point x="388" y="196" type="curve" smooth="yes"/>
      <point x="388" y="142"/>
      <point x="372" y="90"/>
    </contour>
    <contour>
      <point x="106" y="0" type="line"/>
      <point x="312" y="0" type="line"/>
      <point x="312" y="90" type="line"/>
      <point x="106" y="90" type="line"/>
    </contour>
    <contour>
      <point x="106" y="329" type="line"/>
      <point x="322" y="329" type="line"/>
      <point x="322" y="419" type="line"/>
      <point x="106" y="419" type="line"/>
    </contour>
    <contour>
      <point x="106" y="610" type="line"/>
      <point x="312" y="610" type="line"/>
      <point x="312" y="700" type="line"/>
      <point x="106" y="700" type="line"/>
    </contour>
    <contour>
      <point x="286" y="419" type="curve"/>
      <point x="286" y="369" type="line"/>
      <point x="450" y="369"/>
      <point x="516" y="427"/>
      <point x="516" y="550" type="curve" smooth="yes"/>
      <point x="516" y="676"/>
      <point x="414" y="700"/>
      <point x="312" y="700" type="curve"/>
      <point x="312" y="610" type="line"/>
      <point x="370" y="610"/>
      <point x="376" y="566"/>
      <point x="376" y="535" type="curve" smooth="yes"/>
      <point x="376" y="495"/>
      <point x="366" y="419"/>
    </contour>
  </outline>
</glyph>
<glyph name="C" format="2">
  <advance width="582"/>
  <unicode hex="0043"/>
  <guideline x="452" y="132"/>
  <anchor x="291" y="0" name="bottom"/>
  <anchor x="291" y="700" name="top"/>
  <outline>
    <contour>
      <point x="291" y="-10" type="curve" smooth="yes"/>
      <point x="451" y="-10"/>
      <point x="522" y="38"/>
      <point x="522" y="132" type="curve" smooth="yes"/>
      <point x="522" y="282" type="line"/>
      <point x="382" y="282" type="line"/>
      <point x="382" y="132" type="line" smooth="yes"/>
      <point x="382" y="85"/>
      <point x="351" y="70"/>
      <point x="291" y="70" type="curve" smooth="yes"/>
      <point x="231" y="70"/>
      <point x="200" y="85"/>
      <point x="200" y="132" type="curve" smooth="yes"/>
      <point x="200" y="568" type="line" smooth="yes"/>
      <point x="200" y="615"/>
      <point x="231" y="630"/>
      <point x="291" y="630" type="curve" smooth="yes"/>
      <point x="351" y="630"/>
      <point x="382" y="615"/>
      <point x="382" y="568" type="curve" smooth="yes"/>
      <point x="382" y="418" type="line"/>
      <point x="522" y="418" type="line"/>
      <point x="522" y="568" type="line" smooth="yes"/>
      <point x="522" y="662"/>
      <point x="451" y="710"/>
      <point x="291" y="710" type="curve" smooth="yes"/>
      <point x="131" y="710"/>
      <point x="60" y="662"/>
      <point x="60" y="568" type="curve" smooth="yes"/>
      <point x="60" y="132" type="line" smooth="yes"/>
      <point x="60" y="38"/>
      <point x="131" y="-10"/>
    </contour>
  </outline>
</glyph>
<glyph name="D" format="2">
  <advance width="586"/>
  <unicode hex="0044"/>
  <anchor x="293" y="0" name="bottom"/>
  <anchor x="293" y="350" name="center"/>
  <anchor x="293" y="700" name="top"/>
  <outline>
    <contour>
      <point x="66" y="0" type="line"/>
      <point x="206" y="0" type="line"/>
      <point x="206" y="700" type="line"/>
      <point x="66" y="700" type="line"/>
    </contour>
    <contour>
      <point x="156" y="0" type="line"/>
      <point x="325" y="0" type="line"/>
      <point x="325" y="90" type="line"/>
      <point x="156" y="90" type="line"/>
    </contour>
    <contour>
      <point x="325" y="90" type="curve"/>
      <point x="325" y="0" type="line"/>
      <point x="495" y="0"/>
      <point x="526" y="58"/>
      <point x="526" y="152" type="curve"/>
      <point x="386" y="152" type="line"/>
      <point x="386" y="105"/>
      <point x="375" y="90"/>
    </contour>
    <contour>
      <point x="386" y="152" type="line"/>
      <point x="526" y="152" type="line"/>
      <point x="526" y="548" type="line"/>
      <point x="386" y="548" type="line"/>
    </contour>
    <contour>
      <point x="156" y="610" type="line"/>
      <point x="325" y="610" type="line"/>
      <point x="325" y="700" type="line"/>
      <point x="156" y="700" type="line"/>
    </contour>
    <contour>
      <point x="386" y="548" type="curve"/>
      <point x="526" y="548" type="line"/>
      <point x="526" y="642"/>
      <point x="495" y="700"/>
      <point x="325" y="700" type="curve"/>
      <point x="325" y="610" type="line"/>
      <point x="375" y="610"/>
      <point x="386" y="595"/>
    </contour>
  </outline>
</glyph>
<glyph name="E" format="2">
  <advance width="500"/>
  <unicode hex="0045"/>
  <guideline x="188" y="470" angle="180"/>
  <anchor x="261" y="0" name="bottom"/>
  <anchor x="451" y="10" name="ogonek"/>
  <anchor x="261" y="700" name="top"/>
  <anchor x="20" y="700" name="topleft"/>
  <outline>
    <contour>
      <point x="66" y="0" type="line"/>
      <point x="206" y="0" type="line"/>
      <point x="206" y="700" type="line"/>
      <point x="66" y="700" type="line"/>
    </contour>
    <contour>
      <point x="134" y="0" type="line"/>
      <point x="460" y="0" type="line"/>
      <point x="460" y="90" type="line"/>
      <point x="134" y="90" type="line"/>
    </contour>
    <contour>
      <point x="134" y="380" type="line"/>
      <point x="420" y="380" type="line"/>
      <point x="420" y="470" type="line"/>
      <point x="134" y="470" type="line"/>
    </contour>
    <contour>
      <point x="134" y="610" type="line"/>
      <point x="460" y="610" type="line"/>
      <point x="460" y="700" type="line"/>
      <point x="134" y="700" type="line"/>
    </contour>
  </outline>
</glyph>
<glyph name="F" format="2">
  <advance width="454"/>
  <unicode hex="0046"/>
  <anchor x="231" y="0" name="bottom"/>
  <anchor x="231" y="700" name="top"/>
  <outline>
    <contour>
      <point x="60" y="0" type="line"/>
      <point x="200" y="0" type="line"/>
      <point x="200" y="700" type="line"/>
      <point x="60" y="700" type="line"/>
    </contour>
    <contour>
      <point x="128" y="380" type="line"/>
      <point x="394" y="380" type="line"/>
      <point x="394" y="470" type="line"/>
      <point x="128" y="470" type="line"/>
    </contour>
    <contour>
      <point x="128" y="610" type="line"/>
      <point x="434" y="610" type="line"/>
      <point x="434" y="700" type="line"/>
      <point x="128" y="700" type="line"/>
    </contour>
  </outline>
</glyph>
<glyph name="G" format="2">
  <advance width="582"/>
  <unicode hex="0047"/>
  <guideline x="244" y="-10"/>
  <guideline x="98" y="79"/>
  <anchor x="291" y="0" name="bottom"/>
  <anchor x="291" y="700" name="top"/>
  <outline>
    <contour>
      <point x="215" y="-11" type="curve" smooth="yes"/>
      <point x="285" y="-11"/>
      <point x="356" y="22"/>
      <point x="402" y="77" type="curve"/>
      <point x="402" y="228" type="line"/>
      <point x="382" y="228" type="line"/>
      <point x="382" y="125"/>
      <point x="325" y="79"/>
      <point x="275" y="79" type="curve" smooth="yes"/>
      <point x="235" y="79"/>
      <point x="200" y="108"/>
      <point x="200" y="160" type="curve" smooth="yes"/>
      <point x="200" y="568" type="line"/>
      <point x="60" y="569" type="line"/>
      <point x="60" y="142" type="line" smooth="yes"/>
      <point x="60" y="35"/>
      <point x="133" y="-11"/>
    </contour>
    <contour>
      <point x="382" y="0" type="line"/>
      <point x="522" y="0" type="line"/>
      <point x="522" y="470" type="line"/>
      <point x="382" y="470" type="line"/>
    </contour>
    <contour>
      <point x="262" y="380" type="line"/>
      <point x="514" y="380" type="line"/>
      <point x="514" y="470" type="line"/>
      <point x="262" y="470" type="line"/>
    </contour>
    <contour>
      <point x="60" y="568" type="curve"/>
      <point x="200" y="568" type="line"/>
      <point x="200" y="615"/>
      <point x="231" y="630"/>
      <point x="291" y="630" type="curve"/>
      <point x="291" y="710" type="line"/>
      <point x="131" y="710"/>
      <point x="60" y="662"/>
    </contour>
    <contour>
      <point x="382" y="568" type="curve"/>
      <point x="382" y="548" type="line"/>
      <point x="522" y="548" type="line"/>
      <point x="522" y="568" type="line"/>
      <point x="522" y="662"/>
      <point x="451" y="710"/>
      <point x="291" y="710" type="curve"/>
      <point x="291" y="630" type="line"/>
      <point x="351" y="630"/>
      <point x="382" y="615"/>
    </contour>
  </outline>
</glyph>
<glyph name="H" format="2">
  <advance width="592"/>
  <unicode hex="0048"/>
  <guideline x="426" y="700" angle="180"/>
  <guideline x="293" y="380"/>
  <anchor x="296" y="0" name="bottom"/>
  <anchor x="296" y="350" name="center"/>
  <anchor x="296" y="700" name="top"/>
  <anchor x="20" y="700" name="topleft"/>
  <outline>
    <contour>
      <point x="386" y="0" type="line"/>
      <point x="526" y="0" type="line"/>
      <point x="526" y="700" type="line"/>
      <point x="386" y="700" type="line"/>
    </contour>
    <contour>
      <point x="66" y="0" type="line"/>
      <point x="206" y="0" type="line"/>
      <point x="206" y="700" type="line"/>
      <point x="66" y="700" type="line"/>
    </contour>
    <contour>
      <point x="168" y="380" type="line"/>
      <point x="425" y="380" type="line"/>
      <point x="425" y="470" type="line"/>
      <point x="168" y="470" type="line"/>
    </contour>
  </outline>
</glyph>
<glyph name="I" format="2">
  <advance width="280"/>
  <unicode hex="0049"/>
  <anchor x="140" y="0" name="bottom"/>
  <anchor x="252" y="10" name="ogonek"/>
  <anchor x="140" y="700" name="top"/>
  <anchor x="20" y="700" name="topleft"/>
  <outline>
    <contour>
      <point x="70" y="0" type="line"/>
      <point x="210" y="0" type="line"/>
      <point x="210" y="700" type="line"/>
      <point x="70" y="700" type="line"/>
    </contour>
  </outline>
</glyph>
<glyph name="J" format="2">
  <advance width="361"/>
  <unicode hex="004A"/>
  <anchor x="178" y="0" name="bottom"/>
  <anchor x="231" y="700" name="top"/>
  <outline>
    <contour>
      <point x="161" y="152" type="line"/>
      <point x="301" y="152" type="line"/>
      <point x="301" y="700" type="line"/>
      <point x="161" y="700" type="line"/>
    </contour>
    <contour>
      <point x="20" y="0" type="line"/>
      <point x="100" y="0" type="line"/>
      <point x="100" y="90" type="line"/>
      <point x="20" y="90" type="line"/>
    </contour>
    <contour>
      <point x="100" y="90" type="curve"/>
      <point x="100" y="0" type="line"/>
      <point x="270" y="0"/>
      <point x="301" y="58"/>
      <point x="301" y="152" type="curve"/>
      <point x="161" y="152" type="line"/>
      <point x="161" y="105"/>
      <point x="150" y="90"/>
    </contour>
  </outline>
</glyph>
<glyph name="K" format="2">
  <advance width="552"/>
  <unicode hex="004B"/>
  <anchor x="279" y="0" name="bottom"/>
  <anchor x="279" y="700" name="top"/>
  <outline>
    <contour>
      <point x="78" y="202" type="line"/>
      <point x="190" y="202" type="line"/>
      <point x="510" y="700" type="line"/>
      <point x="398" y="700" type="line"/>
    </contour>
    <contour>
      <point x="66" y="0" type="line"/>
      <point x="206" y="0" type="line"/>
      <point x="206" y="700" type="line"/>
      <point x="66" y="700" type="line"/>
    </contour>
    <contour>
      <point x="394" y="0" type="line"/>
      <point x="532" y="0" type="line"/>
      <point x="371" y="542" type="line"/>
      <point x="265" y="410" type="line"/>
    </contour>
  </outline>
</glyph>
<glyph name="L" format="2">
  <advance width="386"/>
  <unicode hex="004C"/>
  <anchor x="216" y="0" name="bottom"/>
  <anchor x="196" y="350" name="center"/>
  <anchor x="136" y="700" name="top"/>
  <anchor x="372" y="700" name="topright"/>
  <outline>
    <contour>
      <point x="66" y="0" type="line"/>
      <point x="206" y="0" type="line"/>
      <point x="206" y="700" type="line"/>
      <point x="66" y="700" type="line"/>
    </contour>
    <contour>
      <point x="134" y="0" type="line"/>
      <point x="366" y="0" type="line"/>
      <point x="366" y="90" type="line"/>
      <point x="134" y="90" type="line"/>
    </contour>
  </outline>
</glyph>
<glyph name="M" format="2">
  <advance width="784"/>
  <unicode hex="004D"/>
  <guideline x="910" y="630"/>
  <anchor x="392" y="0" name="bottom"/>
  <anchor x="392" y="700" name="top"/>
  <outline>
    <contour>
      <point x="315" y="0" type="line"/>
      <point x="416" y="0" type="line"/>
      <point x="302" y="700" type="line"/>
      <point x="201" y="700" type="line"/>
    </contour>
    <contour>
      <point x="66" y="0" type="line"/>
      <point x="206" y="0" type="line"/>
      <point x="206" y="700" type="line"/>
      <point x="66" y="700" type="line"/>
    </contour>
    <contour>
      <point x="401" y="0" type="line"/>
      <point x="482" y="0" type="line"/>
      <point x="596" y="700" type="line"/>
      <point x="515" y="700" type="line"/>
    </contour>
    <contour>
      <point x="588" y="0" type="line"/>
      <point x="718" y="0" type="line"/>
      <point x="718" y="700" type="line"/>
      <point x="588" y="700" type="line"/>
    </contour>
  </outline>
</glyph>
<glyph name="N" format="2">
  <advance width="640"/>
  <unicode hex="004E"/>
  <anchor x="320" y="0" name="bottom"/>
  <anchor x="320" y="700" name="top"/>
  <outline>
    <contour>
      <point x="346" y="0" type="line"/>
      <point x="448" y="0" type="line"/>
      <point x="302" y="700" type="line"/>
      <point x="200" y="700" type="line"/>
    </contour>
    <contour>
      <point x="66" y="0" type="line"/>
      <point x="206" y="0" type="line"/>
      <point x="206" y="700" type="line"/>
      <point x="66" y="700" type="line"/>
    </contour>
    <contour>
      <point x="444" y="0" type="line"/>
      <point x="574" y="0" type="line"/>
      <point x="574" y="700" type="line"/>
      <point x="444" y="700" type="line"/>
    </contour>
  </outline>
</glyph>
<glyph name="P" format="2">
  <advance width="556"/>
  <unicode hex="0050"/>
  <guideline x="200" y="371" angle="180"/>
  <anchor x="278" y="0" name="bottom"/>
  <anchor x="278" y="700" name="top"/>
  <outline>
    <contour>
      <point x="66" y="0" type="line"/>
      <point x="206" y="0" type="line"/>
      <point x="206" y="700" type="line"/>
      <point x="66" y="700" type="line"/>
    </contour>
    <contour>
      <point x="156" y="140" type="line"/>
      <point x="315" y="140" type="line"/>
      <point x="315" y="230" type="line"/>
      <point x="156" y="230" type="line"/>
    </contour>
    <contour>
      <point x="315" y="230" type="curve"/>
      <point x="315" y="140" type="line"/>
      <point x="485" y="140"/>
      <point x="516" y="198"/>
      <point x="516" y="292" type="curve"/>
      <point x="376" y="292" type="line"/>
      <point x="376" y="245"/>
      <point x="365" y="230"/>
    </contour>
    <contour>
      <point x="376" y="292" type="line"/>
      <point x="516" y="292" type="line"/>
      <point x="516" y="548" type="line"/>
      <point x="376" y="548" type="line"/>
    </contour>
    <contour>
      <point x="156" y="610" type="line"/>
      <point x="315" y="610" type="line"/>
      <point x="315" y="700" type="line"/>
      <point x="156" y="700" type="line"/>
    </contour>
    <contour>
      <point x="376" y="548" type="curve"/>
      <point x="516" y="548" type="line"/>
      <point x="516" y="642"/>
      <point x="485" y="700"/>
      <point x="315" y="700" type="curve"/>
      <point x="315" y="610" type="line"/>
      <point x="365" y="610"/>
      <point x="376" y="595"/>
    </contour>
  </outline>
</glyph>
<glyph name="Q" format="2">
  <advance width="582"/>
  <unicode hex="0051"/>
  <anchor x="297" y="0" name="bottom"/>
  <anchor x="297" y="700" name="top"/>
  <outline>
    <component base="O"/>
    <contour>
      <point x="368" y="-90" type="line"/>
      <point x="342" y="188" type="line"/>
      <point x="252" y="188" type="line"/>
      <point x="278" y="-90" type="line"/>
    </contour>
  </outline>
</glyph>
<glyph name="R" format="2">
  <advance width="578"/>
  <unicode hex="0052"/>
  <guideline x="200" y="371" angle="180"/>
  <anchor x="287" y="0" name="bottom"/>
  <anchor x="287" y="700" name="top"/>
  <outline>
    <contour>
      <point x="66" y="0" type="line"/>
      <point x="206" y="0" type="line"/>
      <point x="206" y="700" type="line"/>
      <point x="66" y="700" type="line"/>
    </contour>
    <contour>
      <point x="388" y="177" type="curve" smooth="yes"/>
      <point x="388" y="0" type="line"/>
      <point x="528" y="0" type="line"/>
      <point x="528" y="187" type="line" smooth="yes"/>
      <point x="528" y="372"/>
      <point x="451" y="380"/>
      <point x="287" y="380" type="curve"/>
      <point x="287" y="330" type="line"/>
      <point x="345" y="330"/>
      <point x="388" y="316"/>
    </contour>
    <contour>
      <point x="106" y="330" type="line"/>
      <point x="322" y="330" type="line"/>
      <point x="322" y="420" type="line"/>
      <point x="106" y="420" type="line"/>
    </contour>
    <contour>
      <point x="106" y="610" type="line"/>
      <point x="322" y="610" type="line"/>
      <point x="322" y="700" type="line"/>
      <point x="106" y="700" type="line"/>
    </contour>
    <contour>
      <point x="287" y="420" type="curve"/>
      <point x="287" y="370" type="line"/>
      <point x="451" y="370"/>
      <point x="526" y="424"/>
      <point x="526" y="550" type="curve" smooth="yes"/>
      <point x="526" y="676"/>
      <point x="424" y="700"/>
      <point x="322" y="700" type="curve"/>
      <point x="322" y="610" type="line"/>
      <point x="372" y="610"/>
      <point x="386" y="589"/>
      <point x="386" y="542" type="curve" smooth="yes"/>
      <point x="386" y="462"/>
      <point x="345" y="420"/>
    </contour>
  </outline>
</glyph>
<glyph name="S" format="2">
  <advance width="517"/>
  <unicode hex="0053"/>
  <guideline x="907" y="562" angle="90"/>
  <guideline x="629" y="-10"/>
  <guideline x="544" y="547" angle="90"/>
  <guideline x="264" y="621" angle="90"/>
  <guideline x="392" y="238" angle="180"/>
  <anchor x="262" y="0" name="bottom"/>
  <anchor x="262" y="700" name="top"/>
  <outline>
    <contour>
      <point x="264" y="-10" type="curve" smooth="yes"/>
      <point x="399" y="-10"/>
      <point x="482" y="92"/>
      <point x="482" y="196" type="curve" smooth="yes"/>
      <point x="482" y="307"/>
      <point x="386" y="378"/>
      <point x="315" y="414" type="curve" smooth="yes"/>
      <point x="252" y="446" type="line" smooth="yes"/>
      <point x="216" y="464"/>
      <point x="174" y="493"/>
      <point x="174" y="544" type="curve" smooth="yes"/>
      <point x="174" y="594"/>
      <point x="215" y="620"/>
      <point x="264" y="620" type="curve" smooth="yes"/>
      <point x="316" y="620"/>
      <point x="358" y="596"/>
      <point x="358" y="502" type="curve"/>
      <point x="494" y="502" type="line"/>
      <point x="494" y="672"/>
      <point x="374" y="720"/>
      <point x="264" y="720" type="curve" smooth="yes"/>
      <point x="114" y="720"/>
      <point x="44" y="630"/>
      <point x="44" y="534" type="curve" smooth="yes"/>
      <point x="44" y="455"/>
      <point x="77" y="385"/>
      <point x="182" y="331" type="curve" smooth="yes"/>
      <point x="246" y="298" type="line" smooth="yes"/>
      <point x="302" y="269"/>
      <point x="352" y="234"/>
      <point x="352" y="176" type="curve" smooth="yes"/>
      <point x="352" y="123"/>
      <point x="310" y="90"/>
      <point x="264" y="90" type="curve" smooth="yes"/>
      <point x="170" y="90"/>
      <point x="168" y="172"/>
      <point x="168" y="238" type="curve"/>
      <point x="27" y="238" type="line"/>
      <point x="27" y="73"/>
      <point x="117" y="-10"/>
    </contour>
  </outline>
</glyph>
<glyph name="T" format="2">
  <advance width="502"/>
  <unicode hex="0054"/>
  <anchor x="251" y="0" name="bottom"/>
  <anchor x="251" y="350" name="center"/>
  <anchor x="251" y="700" name="top"/>
  <outline>
    <contour>
      <point x="181" y="0" type="line"/>
      <point x="321" y="0" type="line"/>
      <point x="321" y="700" type="line"/>
      <point x="181" y="700" type="line"/>
    </contour>
    <contour>
      <point x="26" y="610" type="line"/>
      <point x="476" y="610" type="line"/>
      <point x="476" y="700" type="line"/>
      <point x="26" y="700" type="line"/>
    </contour>
  </outline>
</glyph>
<glyph name="U" format="2">
  <advance width="578"/>
  <unicode hex="0055"/>
  <anchor x="289" y="0" name="bottom"/>
  <anchor x="525" y="10" name="ogonek"/>
  <anchor x="289" y="700" name="top"/>
  <anchor x="564" y="700" name="topright"/>
  <outline>
    <contour>
      <point x="289" y="-10" type="curve" smooth="yes"/>
      <point x="447" y="-10"/>
      <point x="518" y="38"/>
      <point x="518" y="132" type="curve" smooth="yes"/>
      <point x="518" y="700" type="line"/>
      <point x="378" y="700" type="line"/>
      <point x="378" y="132" type="line" smooth="yes"/>
      <point x="378" y="85"/>
      <point x="347" y="70"/>
      <point x="289" y="70" type="curve" smooth="yes"/>
      <point x="231" y="70"/>
      <point x="200" y="85"/>
      <point x="200" y="132" type="curve" smooth="yes"/>
      <point x="200" y="700" type="line"/>
      <point x="60" y="700" type="line"/>
      <point x="60" y="132" type="line" smooth="yes"/>
      <point x="60" y="39"/>
      <point x="132" y="-10"/>
    </contour>
  </outline>
</glyph>
<glyph name="V" format="2">
  <advance width="561"/>
  <unicode hex="0056"/>
  <anchor x="293" y="0" name="bottom"/>
  <anchor x="293" y="700" name="top"/>
  <outline>
    <contour>
      <point x="172" y="0" type="line"/>
      <point x="305" y="0" type="line"/>
      <point x="159" y="700" type="line"/>
      <point x="26" y="700" type="line"/>
    </contour>
    <contour>
      <point x="281" y="0" type="line"/>
      <point x="395" y="0" type="line"/>
      <point x="541" y="700" type="line"/>
      <point x="427" y="700" type="line"/>
    </contour>
  </outline>
</glyph>
<glyph name="W" format="2">
  <advance width="791"/>
  <unicode hex="0057"/>
  <guideline x="386" y="105"/>
  <anchor x="398" y="0" name="bottom"/>
  <anchor x="398" y="700" name="top"/>
  <outline>
    <contour>
      <point x="121" y="0" type="line"/>
      <point x="261" y="0" type="line"/>
      <point x="166" y="700" type="line"/>
      <point x="26" y="700" type="line"/>
    </contour>
    <contour>
      <point x="251" y="0" type="line"/>
      <point x="332" y="0" type="line"/>
      <point x="406" y="700" type="line"/>
      <point x="325" y="700" type="line"/>
    </contour>
    <contour>
      <point x="465" y="0" type="line"/>
      <point x="566" y="0" type="line"/>
      <point x="492" y="700" type="line"/>
      <point x="391" y="700" type="line"/>
    </contour>
    <contour>
      <point x="556" y="0" type="line"/>
      <point x="676" y="0" type="line"/>
      <point x="771" y="700" type="line"/>
      <point x="651" y="700" type="line"/>
    </contour>
  </outline>
</glyph>
<glyph name="X" format="2">
  <advance width="500"/>
  <unicode hex="0058"/>
  <anchor x="250" y="0" name="bottom"/>
  <anchor x="250" y="700" name="top"/>
  <outline>
    <contour>
      <point x="340" y="0" type="line"/>
      <point x="480" y="0" type="line"/>
      <point x="160" y="700" type="line"/>
      <point x="20" y="700" type="line"/>
    </contour>
    <contour>
      <point x="20" y="0" type="line"/>
      <point x="130" y="0" type="line"/>
      <point x="307" y="410" type="line"/>
      <point x="197" y="410" type="line"/>
    </contour>
    <contour>
      <point x="193" y="290" type="line"/>
      <point x="303" y="290" type="line"/>
      <point x="480" y="700" type="line"/>
      <point x="370" y="700" type="line"/>
    </contour>
  </outline>
</glyph>
<glyph name="Y" format="2">
  <advance width="513"/>
  <unicode hex="0059"/>
  <anchor x="258" y="0" name="bottom"/>
  <anchor x="258" y="700" name="top"/>
  <anchor x="14" y="700" name="topleft"/>
  <outline>
    <contour>
      <point x="192" y="141" type="line"/>
      <point x="315" y="184" type="line"/>
      <point x="156" y="700" type="line"/>
      <point x="20" y="700" type="line"/>
    </contour>
    <contour>
      <point x="188" y="0" type="line"/>
      <point x="328" y="0" type="line"/>
      <point x="328" y="256" type="line"/>
      <point x="188" y="256" type="line"/>
    </contour>
    <contour>
      <point x="325" y="141" type="line"/>
      <point x="497" y="699" type="line"/>
      <point x="380" y="699" type="line"/>
      <point x="221" y="184" type="line"/>
    </contour>
  </outline>
</glyph>
<glyph name="Z" format="2">
  <advance width="442"/>
  <unicode hex="005A"/>
  <anchor x="226" y="0" name="bottom"/>
  <anchor x="226" y="350" name="center"/>
  <anchor x="226" y="700" name="top"/>
  <outline>
    <contour>
      <point x="36" y="90" type="line"/>
      <point x="179" y="90" type="line"/>
      <point x="416" y="610" type="line"/>
      <point x="273" y="610" type="line"/>
    </contour>
    <contour>
      <point x="36" y="0" type="line"/>
      <point x="416" y="0" type="line"/>
      <point x="416" y="90" type="line"/>
      <point x="36" y="90" type="line"/>
    </contour>
    <contour>
      <point x="26" y="610" type="line"/>
      <point x="416" y="610" type="line"/>
      <point x="416" y="700" type="line"/>
      <point x="26" y="700" type="line"/>
    </contour>
  </outline>
</glyph>
<glyph name="bracketleft" format="2">
  <advance width="311"/>
  <unicode hex="005B"/>
  <guideline x="208" y="-110"/>
  <outline>
    <contour>
      <point x="66" y="-110" type="line"/>
      <point x="186" y="-110" type="line"/>
      <point x="186" y="700" type="line"/>
      <point x="66" y="700" type="line"/>
    </contour>
    <contour>
      <point x="134" y="-110" type="line"/>
      <point x="281" y="-110" type="line"/>
      <point x="281" y="-20" type="line"/>
      <point x="134" y="-20" type="line"/>
    </contour>
    <contour>
      <point x="134" y="610" type="line"/>
      <point x="281" y="610" type="line"/>
      <point x="281" y="700" type="line"/>
      <point x="134" y="700" type="line"/>
    </contour>
  </outline>
</glyph>
<glyph name="backslash" format="2">
  <advance width="270"/>
  <unicode hex="005C"/>
  <outline>
    <contour>
      <point x="250" y="-50" type="line"/>
      <point x="131" y="700" type="line"/>
      <point x="20" y="700" type="line"/>
      <point x="139" y="-50" type="line"/>
    </contour>
  </outline>
</glyph>
<glyph name="bracketright" format="2">
  <advance width="311"/>
  <unicode hex="005D"/>
  <outline>
    <contour>
      <point x="245" y="-110" type="line"/>
      <point x="245" y="700" type="line"/>
      <point x="125" y="700" type="line"/>
      <point x="125" y="-110" type="line"/>
    </contour>
    <contour>
      <point x="177" y="-110" type="line"/>
      <point x="177" y="-20" type="line"/>
      <point x="30" y="-20" type="line"/>
      <point x="30" y="-110" type="line"/>
    </contour>
    <contour>
      <point x="177" y="610" type="line"/>
      <point x="177" y="700" type="line"/>
      <point x="30" y="700" type="line"/>
      <point x="30" y="610" type="line"/>
    </contour>
  </outline>
</glyph>
<glyph name="asciicircum" format="2">
  <advance width="386"/>
  <unicode hex="005E"/>
  <outline>
    <contour>
      <point x="182" y="700" type="line"/>
      <point x="276" y="331" type="line"/>
      <point x="366" y="331" type="line"/>
      <point x="272" y="700" type="line"/>
    </contour>
    <contour>
      <point x="114" y="700" type="line"/>
      <point x="20" y="331" type="line"/>
      <point x="110" y="331" type="line"/>
      <point x="204" y="700" type="line"/>
    </contour>
  </outline>
</glyph>
<glyph name="a" format="2">
  <advance width="473"/>
  <unicode hex="0061"/>
  <guideline x="236" y="72" angle="90"/>
  <guideline x="326" y="400"/>
  <anchor x="232" y="0" name="bottom"/>
  <anchor x="425" y="10" name="ogonek"/>
  <anchor x="242" y="470" name="top"/>
  <outline>
    <contour>
      <point x="37" y="120" type="curve" smooth="yes"/>
      <point x="37" y="26"/>
      <point x="101" y="-10"/>
      <point x="182" y="-10" type="curve" smooth="yes"/>
      <point x="268" y="-10"/>
      <point x="325" y="37"/>
      <point x="325" y="120" type="curve"/>
      <point x="301" y="120" type="line"/>
      <point x="301" y="0" type="line"/>
      <point x="423" y="0" type="line"/>
      <point x="423" y="330" type="line" smooth="yes"/>
      <point x="423" y="454"/>
      <point x="325" y="480"/>
      <point x="236" y="480" type="curve" smooth="yes"/>
      <point x="101" y="480"/>
      <point x="36" y="421"/>
      <point x="36" y="293" type="curve"/>
      <point x="160" y="293" type="line"/>
      <point x="160" y="367"/>
      <point x="187" y="400"/>
      <point x="236" y="400" type="curve" smooth="yes"/>
      <point x="279" y="400"/>
      <point x="301" y="380"/>
      <point x="301" y="346" type="curve" smooth="yes"/>
      <point x="301" y="228"/>
      <point x="37" y="312"/>
    </contour>
    <contour>
      <point x="226" y="72" type="curve" smooth="yes"/>
      <point x="191" y="72"/>
      <point x="161" y="95"/>
      <point x="161" y="130" type="curve" smooth="yes"/>
      <point x="161" y="165"/>
      <point x="193" y="177"/>
      <point x="225" y="186" type="curve" smooth="yes"/>
      <point x="269" y="198"/>
      <point x="326" y="215"/>
      <point x="326" y="279" type="curve"/>
      <point x="301" y="279" type="line"/>
      <point x="301" y="181" type="line" smooth="yes"/>
      <point x="301" y="103"/>
      <point x="271" y="72"/>
    </contour>
  </outline>
</glyph>
<glyph name="b" format="2">
  <advance width="496"/>
  <unicode hex="0062"/>
  <outline>
    <contour>
      <point x="50" y="0" type="line"/>
      <point x="182" y="0" type="line"/>
      <point x="182" y="720" type="line"/>
      <point x="50" y="720" type="line"/>
    </contour>
    <contour>
      <point x="326" y="235" type="curve" smooth="yes"/>
      <point x="326" y="130"/>
      <point x="303" y="70"/>
      <point x="259" y="70" type="curve" smooth="yes"/>
      <point x="221" y="70"/>
      <point x="182" y="112"/>
      <point x="182" y="221" type="curve"/>
      <point x="171" y="221" type="line"/>
      <point x="155" y="108" type="line"/>
      <point x="171" y="52"/>
      <point x="196" y="-10"/>
      <point x="284" y="-10" type="curve" smooth="yes"/>
      <point x="391" y="-10"/>
      <point x="460" y="86"/>
      <point x="460" y="235" type="curve" smooth="yes"/>
      <point x="460" y="384"/>
      <point x="391" y="480"/>
      <point x="284" y="480" type="curve" smooth="yes"/>
      <point x="196" y="480"/>
      <point x="161" y="418"/>
      <point x="145" y="362" type="curve"/>
      <point x="171" y="249" type="line"/>
      <point x="182" y="249" type="line"/>
      <point x="182" y="358"/>
      <point x="221" y="400"/>
      <point x="259" y="400" type="curve" smooth="yes"/>
      <point x="303" y="400"/>
      <point x="326" y="340"/>
    </contour>
  </outline>
</glyph>
<glyph name="c" format="2">
  <advance width="468"/>
  <unicode hex="0063"/>
  <guideline x="591" y="400"/>
  <anchor x="250" y="0" name="bottom"/>
  <anchor x="250" y="470" name="top"/>
  <outline>
    <contour>
      <point x="250" y="-10" type="curve"/>
      <point x="250" y="70" type="line"/>
      <point x="204" y="70"/>
      <point x="170" y="116"/>
      <point x="170" y="235" type="curve" smooth="yes"/>
      <point x="170" y="352"/>
      <point x="202" y="400"/>
      <point x="250" y="400" type="curve"/>
      <point x="250" y="480" type="line"/>
      <point x="123" y="480"/>
      <point x="36" y="409"/>
      <point x="36" y="235" type="curve" smooth="yes"/>
      <point x="36" y="81"/>
      <point x="105" y="-10"/>
    </contour>
    <contour>
      <point x="250" y="70" type="curve"/>
      <point x="250" y="-10" type="line"/>
      <point x="376" y="-10"/>
      <point x="436" y="59"/>
      <point x="436" y="177" type="curve"/>
      <point x="312" y="177" type="line"/>
      <point x="312" y="101"/>
      <point x="288" y="70"/>
    </contour>
    <contour>
      <point x="316" y="272" type="curve"/>
      <point x="442" y="272" type="line"/>
      <point x="442" y="419"/>
      <point x="368" y="480"/>
      <point x="250" y="480" type="curve"/>
      <point x="250" y="400" type="line"/>
      <point x="295" y="400"/>
      <point x="316" y="358"/>
    </contour>
  </outline>
</glyph>
<glyph name="d" format="2">
  <advance width="502"/>
  <unicode hex="0064"/>
  <guideline x="284" y="215" angle="270"/>
  <guideline x="293" y="-8"/>
  <guideline x="554" y="400"/>
  <guideline x="237" y="480"/>
  <guideline x="515" y="77"/>
  <anchor x="251" y="0" name="bottom"/>
  <anchor x="377" y="576" name="center"/>
  <anchor x="251" y="470" name="top"/>
  <anchor x="582" y="720" name="topright"/>
  <outline>
    <contour>
      <point x="446" y="720" type="line"/>
      <point x="314" y="720" type="line"/>
      <point x="314" y="0" type="line"/>
      <point x="446" y="0" type="line"/>
    </contour>
    <contour>
      <point x="170" y="235" type="curve" smooth="yes"/>
      <point x="170" y="340"/>
      <point x="193" y="400"/>
      <point x="237" y="400" type="curve" smooth="yes"/>
      <point x="275" y="400"/>
      <point x="314" y="358"/>
      <point x="314" y="249" type="curve"/>
      <point x="325" y="249" type="line"/>
      <point x="341" y="362" type="line"/>
      <point x="325" y="418"/>
      <point x="300" y="480"/>
      <point x="212" y="480" type="curve" smooth="yes"/>
      <point x="105" y="480"/>
      <point x="36" y="384"/>
      <point x="36" y="235" type="curve" smooth="yes"/>
      <point x="36" y="86"/>
      <point x="105" y="-10"/>
      <point x="212" y="-10" type="curve" smooth="yes"/>
      <point x="300" y="-10"/>
      <point x="325" y="52"/>
      <point x="341" y="108" type="curve"/>
      <point x="325" y="221" type="line"/>
      <point x="314" y="221" type="line"/>
      <point x="314" y="112"/>
      <point x="275" y="70"/>
      <point x="237" y="70" type="curve" smooth="yes"/>
      <point x="193" y="70"/>
      <point x="170" y="130"/>
    </contour>
  </outline>
</glyph>
<glyph name="e" format="2">
  <advance width="478"/>
  <unicode hex="0065"/>
  <anchor x="250" y="0" name="bottom"/>
  <anchor x="430" y="10" name="ogonek"/>
  <anchor x="250" y="470" name="top"/>
  <outline>
    <contour>
      <point x="250" y="-10" type="curve"/>
      <point x="250" y="70" type="line"/>
      <point x="204" y="70"/>
      <point x="166" y="116"/>
      <point x="166" y="235" type="curve" smooth="yes"/>
      <point x="166" y="352"/>
      <point x="202" y="400"/>
      <point x="250" y="400" type="curve"/>
      <point x="250" y="480" type="line"/>
      <point x="123" y="480"/>
      <point x="36" y="409"/>
      <point x="36" y="235" type="curve" smooth="yes"/>
      <point x="36" y="81"/>
      <point x="105" y="-10"/>
    </contour>
    <contour>
      <point x="92" y="236" type="line"/>
      <point x="413" y="236" type="line"/>
      <point x="413" y="301" type="line"/>
      <point x="92" y="301" type="line"/>
    </contour>
    <contour>
      <point x="250" y="70" type="curve"/>
      <point x="250" y="-10" type="line"/>
      <point x="376" y="-10"/>
      <point x="436" y="59"/>
      <point x="436" y="177" type="curve"/>
      <point x="312" y="177" type="line"/>
      <point x="312" y="101"/>
      <point x="288" y="70"/>
    </contour>
    <contour>
      <point x="316" y="236" type="curve"/>
      <point x="442" y="236" type="line"/>
      <point x="442" y="425"/>
      <point x="362" y="480"/>
      <point x="250" y="480" type="curve"/>
      <point x="250" y="400" type="line"/>
      <point x="295" y="400"/>
      <point x="316" y="358"/>
    </contour>
  </outline>
</glyph>
<glyph name="f" format="2">
  <advance width="378"/>
  <unicode hex="0066"/>
  <anchor x="206" y="0" name="bottom"/>
  <anchor x="206" y="720" name="top"/>
  <outline>
    <contour>
      <point x="120" y="0" type="line"/>
      <point x="252" y="0" type="line"/>
      <point x="252" y="582" type="line"/>
      <point x="120" y="582" type="line"/>
    </contour>
    <contour>
      <point x="20" y="380" type="line"/>
      <point x="352" y="380" type="line"/>
      <point x="352" y="470" type="line"/>
      <point x="20" y="470" type="line"/>
    </contour>
    <contour>
      <point x="120" y="582" type="curve"/>
      <point x="252" y="582" type="line"/>
      <point x="252" y="612"/>
      <point x="270" y="630"/>
      <point x="300" y="630" type="curve" smooth="yes"/>
      <point x="352" y="630" type="line"/>
      <point x="352" y="720" type="line"/>
      <point x="258" y="720" type="line" smooth="yes"/>
      <point x="155" y="720"/>
      <point x="120" y="684"/>
    </contour>
  </outline>
</glyph>
<glyph name="g" format="2">
  <advance width="496"/>
  <unicode hex="0067"/>
  <guideline x="258" y="73"/>
  <anchor x="249" y="-240" name="bottom"/>
  <anchor x="245" y="470" name="top"/>
  <outline>
    <contour>
      <point x="314" y="-86" type="line"/>
      <point x="314" y="-140"/>
      <point x="287" y="-170"/>
      <point x="249" y="-170" type="curve" smooth="yes"/>
      <point x="210" y="-170"/>
      <point x="183" y="-137"/>
      <point x="183" y="-63" type="curve"/>
      <point x="59" y="-63" type="line"/>
      <point x="59" y="-191"/>
      <point x="124" y="-250"/>
      <point x="249" y="-250" type="curve" smooth="yes"/>
      <point x="338" y="-250"/>
      <point x="446" y="-220"/>
      <point x="446" y="-86" type="curve" smooth="yes"/>
      <point x="446" y="470" type="line"/>
      <point x="314" y="470" type="line"/>
    </contour>
    <contour>
      <point x="170" y="235" type="curve"/>
      <point x="36" y="235" type="line"/>
      <point x="36" y="86"/>
      <point x="105" y="-10"/>
      <point x="212" y="-10" type="curve" smooth="yes"/>
      <point x="300" y="-10"/>
      <point x="325" y="52"/>
      <point x="341" y="108" type="curve"/>
      <point x="325" y="221" type="line"/>
      <point x="314" y="221" type="line"/>
      <point x="314" y="112"/>
      <point x="275" y="70"/>
      <point x="237" y="70" type="curve" smooth="yes"/>
      <point x="193" y="70"/>
      <point x="170" y="130"/>
    </contour>
    <contour>
      <point x="36" y="235" type="curve"/>
      <point x="170" y="235" type="line"/>
      <point x="170" y="340"/>
      <point x="193" y="400"/>
      <point x="237" y="400" type="curve" smooth="yes"/>
      <point x="275" y="400"/>
      <point x="314" y="358"/>
      <point x="314" y="249" type="curve"/>
      <point x="325" y="249" type="line"/>
      <point x="341" y="362" type="line"/>
      <point x="325" y="418"/>
      <point x="300" y="480"/>
      <point x="212" y="480" type="curve" smooth="yes"/>
      <point x="105" y="480"/>
      <point x="36" y="384"/>
    </contour>
  </outline>
</glyph>
<glyph name="h" format="2">
  <advance width="504"/>
  <unicode hex="0068"/>
  <anchor x="258" y="0" name="bottom"/>
  <anchor x="258" y="576" name="center"/>
  <anchor x="258" y="720" name="top"/>
  <outline>
    <contour>
      <point x="50" y="462" type="line"/>
      <point x="182" y="462" type="line"/>
      <point x="182" y="720" type="line"/>
      <point x="50" y="720" type="line"/>
    </contour>
    <component base="n"/>
  </outline>
</glyph>
<glyph name="k" format="2">
  <advance width="460"/>
  <unicode hex="006B"/>
  <anchor x="226" y="0" name="bottom"/>
  <anchor x="226" y="720" name="top"/>
  <outline>
    <contour>
      <point x="50" y="0" type="line"/>
      <point x="182" y="0" type="line"/>
      <point x="182" y="720" type="line"/>
      <point x="50" y="720" type="line"/>
    </contour>
    <contour>
      <point x="97" y="175" type="line"/>
      <point x="156" y="76" type="line"/>
      <point x="434" y="470" type="line"/>
      <point x="305" y="470" type="line"/>
    </contour>
    <contour>
      <point x="282" y="370" type="line"/>
      <point x="212" y="252" type="line"/>
      <point x="324" y="0" type="line"/>
      <point x="446" y="0" type="line"/>
    </contour>
  </outline>
</glyph>
<glyph name="l" format="2">
  <advance width="270"/>
  <unicode hex="006C"/>
  <anchor x="135" y="0" name="bottom"/>
  <anchor x="135" y="235" name="center"/>
  <anchor x="135" y="720" name="top"/>
  <anchor x="350" y="720" name="topright"/>
  <outline>
    <contour>
      <point x="50" y="138" type="line"/>
      <point x="182" y="138" type="line"/>
      <point x="182" y="720" type="line"/>
      <point x="50" y="720" type="line"/>
    </contour>
    <contour>
      <point x="188" y="0" type="curve" smooth="yes"/>
      <point x="260" y="0" type="line"/>
      <point x="260" y="90" type="line"/>
      <point x="230" y="90" type="line" smooth="yes"/>
      <point x="200" y="90"/>
      <point x="182" y="108"/>
      <point x="182" y="138" type="curve"/>
      <point x="50" y="138" type="line"/>
      <point x="50" y="36"/>
      <point x="85" y="0"/>
    </contour>
  </outline>
</glyph>
<glyph name="m" format="2">
  <advance width="718"/>
  <unicode hex="006D"/>
  <guideline x="529" y="478"/>
  <anchor x="364" y="0" name="bottom"/>
  <anchor x="364" y="470" name="top"/>
  <outline>
    <contour>
      <point x="50" y="0" type="line"/>
      <point x="182" y="0" type="line"/>
      <point x="182" y="470" type="line"/>
      <point x="50" y="470" type="line"/>
    </contour>
    <contour>
      <point x="536" y="0" type="line"/>
      <point x="668" y="0" type="line"/>
      <point x="668" y="322" type="line" smooth="yes"/>
      <point x="668" y="439"/>
      <point x="604" y="478"/>
      <point x="529" y="478" type="curve" smooth="yes"/>
      <point x="453" y="478"/>
      <point x="409" y="438"/>
      <point x="373" y="362" type="curve"/>
      <point x="409" y="249" type="line"/>
      <point x="420" y="249" type="line"/>
      <point x="420" y="358"/>
      <point x="449" y="398"/>
      <point x="486" y="398" type="curve" smooth="yes"/>
      <point x="515" y="398"/>
      <point x="544" y="373"/>
      <point x="541" y="301" type="curve" smooth="yes"/>
      <point x="536" y="197" type="line"/>
    </contour>
    <contour>
      <point x="298" y="0" type="line"/>
      <point x="420" y="0" type="line"/>
      <point x="420" y="322" type="line" smooth="yes"/>
      <point x="420" y="432"/>
      <point x="349" y="478"/>
      <point x="277" y="478" type="curve" smooth="yes"/>
      <point x="209" y="478"/>
      <point x="160" y="437"/>
      <point x="135" y="332" type="curve"/>
      <point x="171" y="249" type="line"/>
      <point x="182" y="249" type="line"/>
      <point x="182" y="358"/>
      <point x="211" y="398"/>
      <point x="248" y="398" type="curve" smooth="yes"/>
      <point x="277" y="398"/>
      <point x="306" y="373"/>
      <point x="303" y="301" type="curve" smooth="yes"/>
      <point x="298" y="197" type="line"/>
    </contour>
  </outline>
</glyph>
<glyph name="n" format="2">
  <advance width="504"/>
  <unicode hex="006E"/>
  <guideline x="204" y="289"/>
  <guideline x="384" y="478"/>
  <anchor x="252" y="0" name="bottom"/>
  <anchor x="252" y="470" name="top"/>
  <outline>
    <contour>
      <point x="322" y="0" type="line"/>
      <point x="454" y="0" type="line"/>
      <point x="454" y="322" type="line" smooth="yes"/>
      <point x="454" y="439"/>
      <point x="390" y="478"/>
      <point x="315" y="478" type="curve" smooth="yes"/>
      <point x="239" y="478"/>
      <point x="171" y="438"/>
      <point x="125" y="362" type="curve"/>
      <point x="171" y="249" type="line"/>
      <point x="182" y="249" type="line"/>
      <point x="182" y="358"/>
      <point x="210" y="398"/>
      <point x="262" y="398" type="curve" smooth="yes"/>
      <point x="303" y="398"/>
      <point x="330" y="373"/>
      <point x="327" y="301" type="curve" smooth="yes"/>
      <point x="322" y="197" type="line"/>
    </contour>
    <contour>
      <point x="50" y="0" type="line"/>
      <point x="182" y="0" type="line"/>
      <point x="182" y="470" type="line"/>
      <point x="50" y="470" type="line"/>
    </contour>
  </outline>
</glyph>
<glyph name="o" format="2">
  <advance width="500"/>
  <unicode hex="006F"/>
  <guideline x="250" y="-10"/>
  <anchor x="250" y="0" name="bottom"/>
  <anchor x="250" y="235" name="center"/>
  <anchor x="454" y="10" name="ogonek"/>
  <anchor x="250" y="470" name="top"/>
  <anchor x="485" y="470" name="topright"/>
  <outline>
    <contour>
      <point x="250" y="400" type="curve"/>
      <point x="250" y="480" type="line"/>
      <point x="133" y="480"/>
      <point x="36" y="409"/>
      <point x="36" y="235" type="curve" smooth="yes"/>
      <point x="36" y="81"/>
      <point x="111" y="-10"/>
      <point x="250" y="-10" type="curve"/>
      <point x="250" y="70" type="line"/>
      <point x="204" y="70"/>
      <point x="170" y="116"/>
      <point x="170" y="235" type="curve" smooth="yes"/>
      <point x="170" y="352"/>
      <point x="206" y="400"/>
    </contour>
    <contour>
      <point x="250" y="480" type="curve"/>
      <point x="250" y="400" type="line"/>
      <point x="294" y="400"/>
      <point x="330" y="352"/>
      <point x="330" y="235" type="curve" smooth="yes"/>
      <point x="330" y="116"/>
      <point x="296" y="70"/>
      <point x="250" y="70" type="curve"/>
      <point x="250" y="-10" type="line"/>
      <point x="389" y="-10"/>
      <point x="464" y="81"/>
      <point x="464" y="235" type="curve" smooth="yes"/>
      <point x="464" y="409"/>
      <point x="367" y="480"/>
    </contour>
  </outline>
</glyph>
<glyph name="q" format="2">
  <advance width="496"/>
  <unicode hex="0071"/>
  <outline>
    <contour>
      <point x="446" y="470" type="line"/>
      <point x="314" y="470" type="line"/>
      <point x="314" y="-240" type="line"/>
      <point x="446" y="-240" type="line"/>
    </contour>
    <contour>
      <point x="170" y="235" type="curve" smooth="yes"/>
      <point x="170" y="340"/>
      <point x="193" y="400"/>
      <point x="237" y="400" type="curve" smooth="yes"/>
      <point x="275" y="400"/>
      <point x="314" y="358"/>
      <point x="314" y="249" type="curve"/>
      <point x="325" y="249" type="line"/>
      <point x="341" y="362" type="line"/>
      <point x="325" y="418"/>
      <point x="300" y="480"/>
      <point x="212" y="480" type="curve" smooth="yes"/>
      <point x="105" y="480"/>
      <point x="36" y="384"/>
      <point x="36" y="235" type="curve" smooth="yes"/>
      <point x="36" y="86"/>
      <point x="105" y="-10"/>
      <point x="212" y="-10" type="curve" smooth="yes"/>
      <point x="300" y="-10"/>
      <point x="335" y="52"/>
      <point x="351" y="108" type="curve"/>
      <point x="325" y="221" type="line"/>
      <point x="314" y="221" type="line"/>
      <point x="314" y="112"/>
      <point x="275" y="70"/>
      <point x="237" y="70" type="curve" smooth="yes"/>
      <point x="193" y="70"/>
      <point x="170" y="130"/>
    </contour>
  </outline>
</glyph>
<glyph name="r" format="2">
  <advance width="348"/>
  <unicode hex="0072"/>
  <anchor x="116" y="0" name="bottom"/>
  <anchor x="186" y="470" name="top"/>
  <outline>
    <contour>
      <point x="50" y="0" type="line"/>
      <point x="182" y="0" type="line"/>
      <point x="182" y="470" type="line"/>
      <point x="50" y="470" type="line"/>
    </contour>
    <contour>
      <point x="328" y="358" type="curve"/>
      <point x="328" y="478" type="line"/>
      <point x="238" y="478"/>
      <point x="164" y="411"/>
      <point x="145" y="312" type="curve"/>
      <point x="171" y="239" type="line"/>
      <point x="182" y="239" type="line"/>
      <point x="182" y="328"/>
      <point x="256" y="358"/>
    </contour>
  </outline>
</glyph>
<glyph name="s" format="2">
  <advance width="460"/>
  <unicode hex="0073"/>
  <guideline x="433" y="71"/>
  <guideline x="234" y="400" angle="90"/>
  <guideline x="295" y="18" angle="90"/>
  <anchor x="238" y="0" name="bottom"/>
  <anchor x="238" y="470" name="top"/>
  <outline>
    <contour>
      <point x="233" y="-10" type="curve" smooth="yes"/>
      <point x="340" y="-10"/>
      <point x="425" y="41"/>
      <point x="425" y="130" type="curve" smooth="yes"/>
      <point x="425" y="214"/>
      <point x="360" y="254"/>
      <point x="285" y="277" type="curve" smooth="yes"/>
      <point x="239" y="291" type="line" smooth="yes"/>
      <point x="188" y="307"/>
      <point x="166" y="324"/>
      <point x="166" y="349" type="curve" smooth="yes"/>
      <point x="166" y="374"/>
      <point x="186" y="400"/>
      <point x="234" y="400" type="curve" smooth="yes"/>
      <point x="260" y="400"/>
      <point x="303" y="394"/>
      <point x="303" y="333" type="curve"/>
      <point x="426" y="333" type="line"/>
      <point x="426" y="432"/>
      <point x="353" y="480"/>
      <point x="233" y="480" type="curve" smooth="yes"/>
      <point x="99" y="480"/>
      <point x="44" y="414"/>
      <point x="44" y="338" type="curve" smooth="yes"/>
      <point x="44" y="278"/>
      <point x="80" y="226"/>
      <point x="197" y="187" type="curve" smooth="yes"/>
      <point x="242" y="172" type="line" smooth="yes"/>
      <point x="285" y="158"/>
      <point x="303" y="145"/>
      <point x="303" y="122" type="curve" smooth="yes"/>
      <point x="303" y="95"/>
      <point x="272" y="71"/>
      <point x="234" y="71" type="curve" smooth="yes"/>
      <point x="180" y="71"/>
      <point x="155" y="106"/>
      <point x="155" y="157" type="curve"/>
      <point x="34" y="157" type="line"/>
      <point x="34" y="44"/>
      <point x="119" y="-10"/>
    </contour>
  </outline>
</glyph>
<glyph name="t" format="2">
  <advance width="378"/>
  <unicode hex="0074"/>
  <guideline x="182" y="470" angle="180"/>
  <guideline x="400" y="700" angle="180"/>
  <anchor x="258" y="0" name="bottom"/>
  <anchor x="206" y="235" name="center"/>
  <anchor x="186" y="700" name="top"/>
  <anchor x="408" y="720" name="topright"/>
  <outline>
    <contour>
      <point x="120" y="138" type="line"/>
      <point x="252" y="138" type="line"/>
      <point x="252" y="720" type="line"/>
      <point x="120" y="720" type="line"/>
    </contour>
    <contour>
      <point x="258" y="0" type="curve" smooth="yes"/>
      <point x="352" y="0" type="line"/>
      <point x="352" y="90" type="line"/>
      <point x="300" y="90" type="line" smooth="yes"/>
      <point x="270" y="90"/>
      <point x="252" y="108"/>
      <point x="252" y="138" type="curve"/>
      <point x="120" y="138" type="line"/>
      <point x="120" y="36"/>
      <point x="155" y="0"/>
    </contour>
    <contour>
      <point x="20" y="380" type="line"/>
      <point x="352" y="380" type="line"/>
      <point x="352" y="470" type="line"/>
      <point x="20" y="470" type="line"/>
    </contour>
  </outline>
</glyph>
<glyph name="u" format="2">
  <advance width="504"/>
  <unicode hex="0075"/>
  <anchor x="252" y="0" name="bottom"/>
  <anchor x="458" y="10" name="ogonek"/>
  <anchor x="252" y="470" name="top"/>
  <anchor x="490" y="470" name="topright"/>
  <outline>
    <contour>
      <point x="182" y="470" type="line"/>
      <point x="50" y="470" type="line"/>
      <point x="50" y="148" type="line" smooth="yes"/>
      <point x="50" y="31"/>
      <point x="114" y="-8"/>
      <point x="189" y="-8" type="curve" smooth="yes"/>
      <point x="265" y="-8"/>
      <point x="323" y="32"/>
      <point x="369" y="108" type="curve"/>
      <point x="333" y="221" type="line"/>
      <point x="322" y="221" type="line"/>
      <point x="322" y="112"/>
      <point x="294" y="72"/>
      <point x="242" y="72" type="curve" smooth="yes"/>
      <point x="201" y="72"/>
      <point x="174" y="97"/>
      <point x="177" y="169" type="curve" smooth="yes"/>
      <point x="182" y="273" type="line"/>
    </contour>
    <contour>
      <point x="454" y="470" type="line"/>
      <point x="322" y="470" type="line"/>
      <point x="322" y="0" type="line"/>
      <point x="454" y="0" type="line"/>
    </contour>
  </outline>
</glyph>
<glyph name="v" format="2">
  <advance width="443"/>
  <unicode hex="0076"/>
  <anchor x="223" y="0" name="bottom"/>
  <anchor x="223" y="470" name="top"/>
  <outline>
    <contour>
      <point x="111" y="0" type="line"/>
      <point x="239" y="0" type="line"/>
      <point x="148" y="470" type="line"/>
      <point x="20" y="470" type="line"/>
    </contour>
    <contour>
      <point x="215" y="0" type="line"/>
      <point x="333" y="0" type="line"/>
      <point x="423" y="470" type="line"/>
      <point x="305" y="470" type="line"/>
    </contour>
  </outline>
</glyph>
<glyph name="w" format="2">
  <advance width="672"/>
  <unicode hex="0077"/>
  <anchor x="336" y="0" name="bottom"/>
  <anchor x="336" y="470" name="top"/>
  <outline>
    <contour>
      <point x="88" y="0" type="line"/>
      <point x="208" y="0" type="line"/>
      <point x="140" y="470" type="line"/>
      <point x="20" y="470" type="line"/>
    </contour>
    <contour>
      <point x="189" y="0" type="line"/>
      <point x="278" y="0" type="line"/>
      <point x="346" y="470" type="line"/>
      <point x="257" y="470" type="line"/>
    </contour>
    <contour>
      <point x="393" y="0" type="line"/>
      <point x="494" y="0" type="line"/>
      <point x="416" y="470" type="line"/>
      <point x="315" y="470" type="line"/>
    </contour>
    <contour>
      <point x="475" y="0" type="line"/>
      <point x="584" y="0" type="line"/>
      <point x="652" y="470" type="line"/>
      <point x="543" y="470" type="line"/>
    </contour>
  </outline>
</glyph>
<glyph name="x" format="2">
  <advance width="440"/>
  <unicode hex="0078"/>
  <outline>
    <contour>
      <point x="284" y="0" type="line"/>
      <point x="424" y="0" type="line"/>
      <point x="156" y="470" type="line"/>
      <point x="16" y="470" type="line"/>
    </contour>
    <contour>
      <point x="16" y="0" type="line"/>
      <point x="125" y="0" type="line"/>
      <point x="252" y="270" type="line"/>
      <point x="143" y="270" type="line"/>
    </contour>
    <contour>
      <point x="188" y="200" type="line"/>
      <point x="297" y="200" type="line"/>
      <point x="424" y="470" type="line"/>
      <point x="315" y="470" type="line"/>
    </contour>
  </outline>
</glyph>
<glyph name="z" format="2">
  <advance width="407"/>
  <unicode hex="007A"/>
  <anchor x="204" y="0" name="bottom"/>
  <anchor x="204" y="235" name="center"/>
  <anchor x="204" y="470" name="top"/>
  <outline>
    <contour>
      <point x="46" y="90" type="line"/>
      <point x="186" y="90" type="line"/>
      <point x="361" y="380" type="line"/>
      <point x="221" y="380" type="line"/>
    </contour>
    <contour>
      <point x="46" y="0" type="line"/>
      <point x="371" y="0" type="line"/>
      <point x="371" y="90" type="line"/>
      <point x="46" y="90" type="line"/>
    </contour>
    <contour>
      <point x="36" y="380" type="line"/>
      <point x="361" y="380" type="line"/>
      <point x="361" y="470" type="line"/>
      <point x="36" y="470" type="line"/>
    </contour>
  </outline>
</glyph>
<glyph name="braceleft" format="2">
  <advance width="338"/>
  <unicode hex="007B"/>
  <guideline x="256" y="-110"/>
  <outline>
    <contour>
      <point x="98" y="562" type="line"/>
      <point x="98" y="395" type="line"/>
      <point x="230" y="395" type="line"/>
      <point x="230" y="562" type="line"/>
    </contour>
    <contour>
      <point x="236" y="700" type="line"/>
      <point x="133" y="700"/>
      <point x="98" y="664"/>
      <point x="98" y="562" type="curve"/>
      <point x="230" y="562" type="line"/>
      <point x="230" y="592"/>
      <point x="248" y="610"/>
      <point x="278" y="610" type="curve" smooth="yes"/>
      <point x="308" y="610" type="line"/>
      <point x="308" y="700" type="line"/>
    </contour>
    <contour>
      <point x="92" y="287" type="line"/>
      <point x="195" y="287"/>
      <point x="230" y="323"/>
      <point x="230" y="395" type="curve"/>
      <point x="98" y="395" type="line"/>
      <point x="98" y="358"/>
      <point x="80" y="340"/>
      <point x="50" y="340" type="curve" smooth="yes"/>
      <point x="20" y="340" type="line"/>
      <point x="20" y="287" type="line"/>
    </contour>
    <contour>
      <point x="98" y="28" type="line"/>
      <point x="230" y="28" type="line"/>
      <point x="230" y="195" type="line"/>
      <point x="98" y="195" type="line"/>
    </contour>
    <contour>
      <point x="236" y="-110" type="curve" smooth="yes"/>
      <point x="308" y="-110" type="line"/>
      <point x="308" y="-20" type="line"/>
      <point x="278" y="-20" type="line" smooth="yes"/>
      <point x="248" y="-20"/>
      <point x="230" y="-2"/>
      <point x="230" y="28" type="curve"/>
      <point x="98" y="28" type="line"/>
      <point x="98" y="-74"/>
      <point x="133" y="-110"/>
    </contour>
    <contour>
      <point x="92" y="303" type="curve" smooth="yes"/>
      <point x="20" y="303" type="line"/>
      <point x="20" y="250" type="line"/>
      <point x="50" y="250" type="line" smooth="yes"/>
      <point x="80" y="250"/>
      <point x="98" y="232"/>
      <point x="98" y="195" type="curve"/>
      <point x="230" y="195" type="line"/>
      <point x="230" y="267"/>
      <point x="195" y="303"/>
    </contour>
  </outline>
</glyph>
<glyph name="braceright" format="2">
  <advance width="338"/>
  <unicode hex="007D"/>
  <outline>
    <contour>
      <point x="230" y="562" type="line"/>
      <point x="98" y="562" type="line"/>
      <point x="98" y="395" type="line"/>
      <point x="230" y="395" type="line"/>
    </contour>
    <contour>
      <point x="92" y="700" type="curve" smooth="yes"/>
      <point x="20" y="700" type="line"/>
      <point x="20" y="610" type="line"/>
      <point x="50" y="610" type="line" smooth="yes"/>
      <point x="80" y="610"/>
      <point x="98" y="592"/>
      <point x="98" y="562" type="curve"/>
      <point x="230" y="562" type="line"/>
      <point x="230" y="664"/>
      <point x="195" y="700"/>
    </contour>
    <contour>
      <point x="236" y="287" type="curve" smooth="yes"/>
      <point x="308" y="287" type="line"/>
      <point x="308" y="340" type="line"/>
      <point x="278" y="340" type="line" smooth="yes"/>
      <point x="248" y="340"/>
      <point x="230" y="358"/>
      <point x="230" y="395" type="curve"/>
      <point x="98" y="395" type="line"/>
      <point x="98" y="323"/>
      <point x="133" y="287"/>
    </contour>
    <contour>
      <point x="230" y="28" type="line"/>
      <point x="230" y="195" type="line"/>
      <point x="98" y="195" type="line"/>
      <point x="98" y="28" type="line"/>
    </contour>
    <contour>
      <point x="92" y="-110" type="line"/>
      <point x="195" y="-110"/>
      <point x="230" y="-74"/>
      <point x="230" y="28" type="curve"/>
      <point x="98" y="28" type="line"/>
      <point x="98" y="-2"/>
      <point x="80" y="-20"/>
      <point x="50" y="-20" type="curve" smooth="yes"/>
      <point x="20" y="-20" type="line"/>
      <point x="20" y="-110" type="line"/>
    </contour>
    <contour>
      <point x="236" y="303" type="line"/>
      <point x="133" y="303"/>
      <point x="98" y="267"/>
      <point x="98" y="195" type="curve"/>
      <point x="230" y="195" type="line"/>
      <point x="230" y="232"/>
      <point x="248" y="250"/>
      <point x="278" y="250" type="curve" smooth="yes"/>
      <point x="308" y="250" type="line"/>
      <point x="308" y="303" type="line"/>
    </contour>
  </outline>
</glyph>
<glyph name="asciitilde" format="2">
  <advance width="574"/>
  <unicode hex="007E"/>
  <outline>
    <contour>
      <point x="30" y="379" type="curve" smooth="yes"/>
      <point x="30" y="210" type="line"/>
      <point x="120" y="210" type="line"/>
      <point x="120" y="353" type="line" smooth="yes"/>
      <point x="120" y="400"/>
      <point x="145" y="409"/>
      <point x="165" y="409" type="curve" smooth="yes"/>
      <point x="188" y="409"/>
      <point x="204" y="397"/>
      <point x="224" y="361" type="curve" smooth="yes"/>
      <point x="287" y="247" type="line" smooth="yes"/>
      <point x="311" y="203"/>
      <point x="362" y="181"/>
      <point x="417" y="181" type="curve" smooth="yes"/>
      <point x="499" y="181"/>
      <point x="544" y="230"/>
      <point x="544" y="301" type="curve" smooth="yes"/>
      <point x="544" y="470" type="line"/>
      <point x="454" y="470" type="line"/>
      <point x="454" y="327" type="line" smooth="yes"/>
      <point x="454" y="280"/>
      <point x="429" y="271"/>
      <point x="409" y="271" type="curve" smooth="yes"/>
      <point x="386" y="271"/>
      <point x="370" y="283"/>
      <point x="350" y="319" type="curve" smooth="yes"/>
      <point x="287" y="433" type="line" smooth="yes"/>
      <point x="263" y="477"/>
      <point x="212" y="499"/>
      <point x="157" y="499" type="curve" smooth="yes"/>
      <point x="75" y="499"/>
      <point x="30" y="450"/>
    </contour>
  </outline>
</glyph>
<glyph name="exclamdown" format="2">
  <advance width="200"/>
  <unicode hex="00A1"/>
  <outline>
    <contour>
      <point x="40" y="-110" type="line"/>
      <point x="160" y="-110" type="line"/>
      <point x="160" y="410" type="line"/>
      <point x="40" y="410" type="line"/>
    </contour>
    <contour>
      <point x="40" y="470" type="line"/>
      <point x="160" y="470" type="line"/>
      <point x="160" y="590" type="line"/>
      <point x="40" y="590" type="line"/>
    </contour>
  </outline>
</glyph>
<glyph name="degree" format="2">
  <advance width="320"/>
  <unicode hex="00B0"/>
  <outline>
    <contour>
      <point x="160" y="430" type="curve" smooth="yes"/>
      <point x="237" y="430"/>
      <point x="300" y="493"/>
      <point x="300" y="570" type="curve" smooth="yes"/>
      <point x="300" y="647"/>
      <point x="237" y="710"/>
      <point x="160" y="710" type="curve" smooth="yes"/>
      <point x="83" y="710"/>
      <point x="20" y="647"/>
      <point x="20" y="570" type="curve" smooth="yes"/>
      <point x="20" y="493"/>
      <point x="83" y="430"/>
    </contour>
    <contour>
      <point x="160" y="512" type="curve" smooth="yes"/>
      <point x="128" y="512"/>
      <point x="102" y="538"/>
      <point x="102" y="570" type="curve" smooth="yes"/>
      <point x="102" y="602"/>
      <point x="128" y="628"/>
      <point x="160" y="628" type="curve" smooth="yes"/>
      <point x="192" y="628"/>
      <point x="218" y="602"/>
      <point x="218" y="570" type="curve" smooth="yes"/>
      <point x="218" y="538"/>
      <point x="192" y="512"/>
    </contour>
  </outline>
</glyph>
<glyph name="paragraph" format="2">
  <advance width="670"/>
  <unicode hex="00B6"/>
  <outline>
    <contour>
      <point x="404" y="-40" type="line"/>
      <point x="404" y="700" type="line"/>
      <point x="264" y="700" type="line"/>
      <point x="264" y="-40" type="line"/>
    </contour>
    <contour>
      <point x="303" y="330" type="line"/>
      <point x="303" y="420" type="line"/>
      <point x="244" y="420" type="line"/>
      <point x="244" y="330" type="line"/>
    </contour>
    <contour>
      <point x="244" y="330" type="curve"/>
      <point x="244" y="420" type="line"/>
      <point x="195" y="420"/>
      <point x="184" y="435"/>
      <point x="184" y="482" type="curve"/>
      <point x="44" y="482" type="line"/>
      <point x="44" y="388"/>
      <point x="75" y="330"/>
    </contour>
    <contour>
      <point x="184" y="482" type="line"/>
      <point x="184" y="548" type="line"/>
      <point x="44" y="548" type="line"/>
      <point x="44" y="482" type="line"/>
    </contour>
    <contour>
      <point x="303" y="610" type="line"/>
      <point x="303" y="700" type="line"/>
      <point x="244" y="700" type="line"/>
      <point x="244" y="610" type="line"/>
    </contour>
    <contour>
      <point x="44" y="548" type="curve"/>
      <point x="184" y="548" type="line"/>
      <point x="184" y="595"/>
      <point x="195" y="610"/>
      <point x="244" y="610" type="curve"/>
      <point x="244" y="700" type="line"/>
      <point x="75" y="700"/>
      <point x="44" y="642"/>
    </contour>
    <contour>
      <point x="604" y="-40" type="line"/>
      <point x="604" y="700" type="line"/>
      <point x="464" y="700" type="line"/>
      <point x="464" y="-40" type="line"/>
    </contour>
  </outline>
</glyph>
<glyph name="questiondown" format="2">
  <advance width="514"/>
  <unicode hex="00BF"/>
  <outline>
    <contour>
      <point x="338" y="590" type="line"/>
      <point x="198" y="590" type="line"/>
      <point x="198" y="470" type="line"/>
      <point x="338" y="470" type="line"/>
    </contour>
    <contour>
      <point x="176" y="22" type="curve"/>
      <point x="36" y="22" type="line"/>
      <point x="36" y="-72"/>
      <point x="87" y="-120"/>
      <point x="257" y="-120" type="curve"/>
      <point x="257" y="-40" type="line"/>
      <point x="207" y="-40"/>
      <point x="176" y="-25"/>
    </contour>
    <contour>
      <point x="478" y="22" type="curve"/>
      <point x="338" y="22" type="line"/>
      <point x="338" y="-25"/>
      <point x="307" y="-40"/>
      <point x="257" y="-40" type="curve"/>
      <point x="257" y="-120" type="line"/>
      <point x="427" y="-120"/>
      <point x="478" y="-72"/>
    </contour>
    <contour>
      <point x="478" y="120" type="line"/>
      <point x="338" y="120" type="line"/>
      <point x="338" y="22" type="line"/>
      <point x="478" y="22" type="line"/>
    </contour>
    <contour>
      <point x="219" y="135" type="curve" smooth="yes"/>
      <point x="233" y="143" type="line" smooth="yes"/>
      <point x="330" y="199"/>
      <point x="338" y="227"/>
      <point x="338" y="322" type="curve" smooth="yes"/>
      <point x="338" y="410" type="line"/>
      <point x="198" y="410" type="line"/>
      <point x="198" y="322" type="line" smooth="yes"/>
      <point x="198" y="282"/>
      <point x="199" y="259"/>
      <point x="164" y="240" type="curve" smooth="yes"/>
      <point x="153" y="234" type="line" smooth="yes"/>
      <point x="54" y="180"/>
      <point x="36" y="140"/>
      <point x="36" y="56" type="curve" smooth="yes"/>
      <point x="36" y="22" type="line"/>
      <point x="176" y="22" type="line"/>
      <point x="176" y="56" type="line" smooth="yes"/>
      <point x="176" y="94"/>
      <point x="187" y="117"/>
    </contour>
  </outline>
</glyph>
<glyph name="AE" format="2">
  <advance width="687"/>
  <unicode hex="00C6"/>
  <outline>
    <contour>
      <point x="147" y="98" type="line"/>
      <point x="424" y="98" type="line"/>
      <point x="424" y="188" type="line"/>
      <point x="147" y="188" type="line"/>
    </contour>
    <contour>
      <point x="20" y="0" type="line"/>
      <point x="141" y="0" type="line"/>
      <point x="327" y="700" type="line"/>
      <point x="206" y="700" type="line"/>
    </contour>
    <contour>
      <point x="313" y="0" type="line"/>
      <point x="453" y="0" type="line"/>
      <point x="453" y="700" type="line"/>
      <point x="313" y="700" type="line"/>
    </contour>
    <contour>
      <point x="381" y="0" type="line"/>
      <point x="647" y="0" type="line"/>
      <point x="647" y="90" type="line"/>
      <point x="381" y="90" type="line"/>
    </contour>
    <contour>
      <point x="381" y="380" type="line"/>
      <point x="607" y="380" type="line"/>
      <point x="607" y="470" type="line"/>
      <point x="381" y="470" type="line"/>
    </contour>
    <contour>
      <point x="381" y="610" type="line"/>
      <point x="647" y="610" type="line"/>
      <point x="647" y="700" type="line"/>
      <point x="381" y="700" type="line"/>
    </contour>
  </outline>
</glyph>
<glyph name="multiply" format="2">
  <advance width="334"/>
  <unicode hex="00D7"/>
  <outline>
    <contour>
      <point x="17" y="420" type="line"/>
      <point x="257" y="180" type="line"/>
      <point x="318" y="241" type="line"/>
      <point x="78" y="481" type="line"/>
    </contour>
    <contour>
      <point x="256" y="481" type="line"/>
      <point x="16" y="241" type="line"/>
      <point x="77" y="180" type="line"/>
      <point x="317" y="420" type="line"/>
    </contour>
  </outline>
</glyph>
<glyph name="Oslash" format="2">
  <advance width="602"/>
  <unicode hex="00D8"/>
  <outline>
    <contour>
      <point x="301" y="-10" type="curve" smooth="yes"/>
      <point x="471" y="-10"/>
      <point x="542" y="38"/>
      <point x="542" y="132" type="curve" smooth="yes"/>
      <point x="542" y="568" type="line" smooth="yes"/>
      <point x="542" y="662"/>
      <point x="471" y="710"/>
      <point x="301" y="710" type="curve" smooth="yes"/>
      <point x="132" y="710"/>
      <point x="60" y="661"/>
      <point x="60" y="568" type="curve" smooth="yes"/>
      <point x="60" y="132" type="line" smooth="yes"/>
      <point x="60" y="39"/>
      <point x="132" y="-10"/>
    </contour>
    <contour>
      <point x="301" y="70" type="curve" smooth="yes"/>
      <point x="231" y="70"/>
      <point x="200" y="85"/>
      <point x="200" y="132" type="curve" smooth="yes"/>
      <point x="200" y="568" type="line" smooth="yes"/>
      <point x="200" y="615"/>
      <point x="231" y="630"/>
      <point x="301" y="630" type="curve" smooth="yes"/>
      <point x="371" y="630"/>
      <point x="402" y="615"/>
      <point x="402" y="568" type="curve" smooth="yes"/>
      <point x="402" y="132" type="line" smooth="yes"/>
      <point x="402" y="85"/>
      <point x="371" y="70"/>
    </contour>
    <contour>
      <point x="235" y="-41" type="line"/>
      <point x="299" y="-46" type="line"/>
      <point x="368" y="739" type="line"/>
      <point x="304" y="744" type="line"/>
    </contour>
  </outline>
</glyph>
<glyph name="Thorn" format="2">
  <advance width="556"/>
  <unicode hex="00DE"/>
  <outline>
    <contour>
      <point x="66" y="0" type="line"/>
      <point x="206" y="0" type="line"/>
      <point x="206" y="700" type="line"/>
      <point x="66" y="700" type="line"/>
    </contour>
    <contour>
      <point x="156" y="140" type="line"/>
      <point x="315" y="140" type="line"/>
      <point x="315" y="230" type="line"/>
      <point x="156" y="230" type="line"/>
    </contour>
    <contour>
      <point x="315" y="230" type="curve"/>
      <point x="315" y="140" type="line"/>
      <point x="485" y="140"/>
      <point x="516" y="198"/>
      <point x="516" y="292" type="curve"/>
      <point x="376" y="292" type="line"/>
      <point x="376" y="245"/>
      <point x="365" y="230"/>
    </contour>
    <contour>
      <point x="376" y="292" type="line"/>
      <point x="516" y="292" type="line"/>
      <point x="516" y="458" type="line"/>
      <point x="376" y="458" type="line"/>
    </contour>
    <contour>
      <point x="156" y="520" type="line"/>
      <point x="315" y="520" type="line"/>
      <point x="315" y="610" type="line"/>
      <point x="156" y="610" type="line"/>
    </contour>
    <contour>
      <point x="376" y="458" type="curve"/>
      <point x="516" y="458" type="line"/>
      <point x="516" y="552"/>
      <point x="485" y="610"/>
      <point x="315" y="610" type="curve"/>
      <point x="315" y="520" type="line"/>
      <point x="365" y="520"/>
      <point x="376" y="505"/>
    </contour>
  </outline>
</glyph>
<glyph name="germandbls" format="2">
  <advance width="532"/>
  <unicode hex="00DF"/>
  <outline>
    <contour>
      <point x="80" y="0" type="line"/>
      <point x="212" y="0" type="line"/>
      <point x="212" y="545" type="line"/>
      <point x="80" y="545" type="line"/>
    </contour>
    <contour>
      <point x="20" y="380" type="line"/>
      <point x="192" y="380" type="line"/>
      <point x="192" y="470" type="line"/>
      <point x="20" y="470" type="line"/>
    </contour>
    <contour>
      <point x="80" y="545" type="curve"/>
      <point x="212" y="545" type="line"/>
      <point x="212" y="595"/>
      <point x="241" y="630"/>
      <point x="274" y="630" type="curve" smooth="yes"/>
      <point x="306" y="630"/>
      <point x="333" y="605"/>
      <point x="333" y="555" type="curve" smooth="yes"/>
      <point x="333" y="510"/>
      <point x="311" y="470"/>
      <point x="282" y="470" type="curve"/>
      <point x="282" y="390" type="line"/>
      <point x="370" y="390"/>
      <point x="447" y="436"/>
      <point x="447" y="555" type="curve" smooth="yes"/>
      <point x="447" y="686"/>
      <point x="353" y="720"/>
      <point x="264" y="720" type="curve" smooth="yes"/>
      <point x="169" y="720"/>
      <point x="80" y="676"/>
    </contour>
    <contour>
      <point x="282" y="470" type="curve"/>
      <point x="282" y="390" type="line"/>
      <point x="326" y="390"/>
      <point x="372" y="352"/>
      <point x="372" y="245" type="curve" smooth="yes"/>
      <point x="372" y="140"/>
      <point x="328" y="124"/>
      <point x="282" y="124" type="curve"/>
      <point x="282" y="0" type="line"/>
      <point x="421" y="0"/>
      <point x="496" y="91"/>
      <point x="496" y="245" type="curve" smooth="yes"/>
      <point x="496" y="419"/>
      <point x="399" y="470"/>
    </contour>
  </outline>
</glyph>
<glyph name="ae" format="2">
  <advance width="719"/>
  <unicode hex="00E6"/>
  <anchor x="360" y="0" name="bottom"/>
  <anchor x="360" y="470" name="top"/>
  <outline>
    <contour>
      <point x="182" y="-10" type="curve" smooth="yes"/>
      <point x="328" y="-10"/>
      <point x="387" y="39"/>
      <point x="387" y="122" type="curve"/>
      <point x="293" y="122" type="line"/>
      <point x="293" y="108" type="line"/>
      <point x="415" y="108" type="line"/>
      <point x="415" y="330" type="line" smooth="yes"/>
      <point x="415" y="454"/>
      <point x="311" y="480"/>
      <point x="222" y="480" type="curve" smooth="yes"/>
      <point x="110" y="480"/>
      <point x="36" y="421"/>
      <point x="36" y="293" type="curve"/>
      <point x="160" y="293" type="line"/>
      <point x="160" y="373"/>
      <point x="190" y="400"/>
      <point x="222" y="400" type="curve" smooth="yes"/>
      <point x="267" y="400"/>
      <point x="293" y="374"/>
      <point x="293" y="346" type="curve" smooth="yes"/>
      <point x="293" y="228"/>
      <point x="37" y="312"/>
      <point x="37" y="120" type="curve" smooth="yes"/>
      <point x="37" y="26"/>
      <point x="101" y="-10"/>
    </contour>
    <contour>
      <point x="222" y="72" type="curve" smooth="yes"/>
      <point x="191" y="72"/>
      <point x="161" y="95"/>
      <point x="161" y="130" type="curve" smooth="yes"/>
      <point x="161" y="165"/>
      <point x="193" y="177"/>
      <point x="221" y="186" type="curve" smooth="yes"/>
      <point x="265" y="200"/>
      <point x="318" y="215"/>
      <point x="318" y="279" type="curve"/>
      <point x="293" y="279" type="line"/>
      <point x="293" y="181" type="line" smooth="yes"/>
      <point x="293" y="103"/>
      <point x="267" y="72"/>
    </contour>
    <contour>
      <point x="495" y="-10" type="curve"/>
      <point x="495" y="70" type="line"/>
      <point x="449" y="70"/>
      <point x="415" y="116"/>
      <point x="415" y="235" type="curve" smooth="yes"/>
      <point x="415" y="352"/>
      <point x="447" y="400"/>
      <point x="495" y="400" type="curve"/>
      <point x="495" y="480" type="line"/>
      <point x="368" y="480"/>
      <point x="293" y="409"/>
      <point x="293" y="235" type="curve" smooth="yes"/>
      <point x="293" y="81"/>
      <point x="350" y="-10"/>
    </contour>
    <contour>
      <point x="341" y="236" type="line"/>
      <point x="654" y="236" type="line"/>
      <point x="654" y="301" type="line"/>
      <point x="341" y="301" type="line"/>
    </contour>
    <contour>
      <point x="495" y="70" type="curve"/>
      <point x="495" y="-10" type="line"/>
      <point x="621" y="-10"/>
      <point x="677" y="59"/>
      <point x="677" y="177" type="curve"/>
      <point x="553" y="177" type="line"/>
      <point x="553" y="101"/>
      <point x="529" y="70"/>
    </contour>
    <contour>
      <point x="557" y="236" type="curve"/>
      <point x="683" y="236" type="line"/>
      <point x="683" y="425"/>
      <point x="603" y="480"/>
      <point x="495" y="480" type="curve"/>
      <point x="495" y="400" type="line"/>
      <point x="536" y="400"/>
      <point x="557" y="358"/>
    </contour>
  </outline>
</glyph>
<glyph name="eth" format="2">
  <advance width="500"/>
  <unicode hex="00F0"/>
  <outline>
    <contour>
      <point x="399" y="235" type="curve"/>
      <point x="464" y="235" type="line"/>
      <point x="464" y="436"/>
      <point x="410" y="581"/>
      <point x="310" y="700" type="curve"/>
      <point x="178" y="700" type="line"/>
      <point x="313" y="543"/>
      <point x="399" y="393"/>
    </contour>
    <contour>
      <point x="250" y="-10" type="curve" smooth="yes"/>
      <point x="389" y="-10"/>
      <point x="464" y="81"/>
      <point x="464" y="235" type="curve"/>
      <point x="330" y="235" type="line"/>
      <point x="330" y="116"/>
      <point x="296" y="70"/>
      <point x="250" y="70" type="curve" smooth="yes"/>
      <point x="204" y="70"/>
      <point x="170" y="116"/>
      <point x="170" y="235" type="curve"/>
      <point x="36" y="235" type="line"/>
      <point x="36" y="81"/>
      <point x="111" y="-10"/>
    </contour>
    <contour>
      <point x="36" y="235" type="curve"/>
      <point x="170" y="235" type="line"/>
      <point x="170" y="352"/>
      <point x="206" y="400"/>
      <point x="250" y="400" type="curve" smooth="yes"/>
      <point x="294" y="400"/>
      <point x="330" y="352"/>
      <point x="330" y="235" type="curve"/>
      <point x="404" y="235" type="line"/>
      <point x="404" y="409"/>
      <point x="357" y="480"/>
      <point x="240" y="480" type="curve" smooth="yes"/>
      <point x="123" y="480"/>
      <point x="36" y="409"/>
    </contour>
    <contour>
      <point x="146" y="495" type="line"/>
      <point x="448" y="610" type="line"/>
      <point x="448" y="685" type="line"/>
      <point x="146" y="570" type="line"/>
    </contour>
  </outline>
</glyph>
<glyph name="oslash" format="2">
  <advance width="500"/>
  <unicode hex="00F8"/>
  <outline>
    <contour>
      <point x="250" y="479" type="curve" smooth="yes"/>
      <point x="133" y="479"/>
      <point x="36" y="408"/>
      <point x="36" y="234" type="curve" smooth="yes"/>
      <point x="36" y="80"/>
      <point x="111" y="-11"/>
      <point x="250" y="-11" type="curve" smooth="yes"/>
      <point x="389" y="-11"/>
      <point x="464" y="80"/>
      <point x="464" y="234" type="curve" smooth="yes"/>
      <point x="464" y="408"/>
      <point x="367" y="479"/>
    </contour>
    <contour>
      <point x="160" y="234" type="curve" smooth="yes"/>
      <point x="160" y="351"/>
      <point x="196" y="399"/>
      <point x="250" y="399" type="curve" smooth="yes"/>
      <point x="304" y="399"/>
      <point x="340" y="351"/>
      <point x="340" y="234" type="curve" smooth="yes"/>
      <point x="340" y="115"/>
      <point x="306" y="69"/>
      <point x="250" y="69" type="curve" smooth="yes"/>
      <point x="194" y="69"/>
      <point x="160" y="115"/>
    </contour>
    <contour>
      <point x="128" y="-37" type="line"/>
      <point x="424" y="475" type="line"/>
      <point x="372" y="505" type="line"/>
      <point x="76" y="-7" type="line"/>
    </contour>
  </outline>
</glyph>
<glyph name="Aogonek" format="2">
  <advance width="561"/>
  <unicode hex="0104"/>
  <outline>
    <contour>
      <point x="402" y="0" type="line"/>
      <point x="535" y="0" type="line"/>
      <point x="389" y="700" type="line"/>
      <point x="256" y="700" type="line"/>
    </contour>
    <contour>
      <point x="110" y="98" type="line"/>
      <point x="387" y="98" type="line"/>
      <point x="387" y="188" type="line"/>
      <point x="110" y="188" type="line"/>
    </contour>
    <contour>
      <point x="20" y="0" type="line"/>
      <point x="134" y="0" type="line"/>
      <point x="280" y="700" type="line"/>
      <point x="166" y="700" type="line"/>
    </contour>
    <contour>
      <point x="479" y="-240" type="curve" smooth="yes"/>
      <point x="571" y="-240" type="line"/>
      <point x="571" y="-150" type="line"/>
      <point x="503" y="-150" type="line" smooth="yes"/>
      <point x="485" y="-150"/>
      <point x="479" y="-140"/>
      <point x="486" y="-123" type="curve" smooth="yes"/>
      <point x="535" y="0" type="line"/>
      <point x="481" y="38" type="line"/>
      <point x="412" y="-135" type="line" smooth="yes"/>
      <point x="405" y="-153"/>
      <point x="401" y="-169"/>
      <point x="401" y="-183" type="curve" smooth="yes"/>
      <point x="401" y="-221"/>
      <point x="428" y="-240"/>
    </contour>
  </outline>
</glyph>
<glyph name="aogonek" format="2">
  <advance width="473"/>
  <unicode hex="0105"/>
  <outline>
    <contour>
      <point x="37" y="120" type="curve" smooth="yes"/>
      <point x="37" y="26"/>
      <point x="101" y="-10"/>
      <point x="182" y="-10" type="curve" smooth="yes"/>
      <point x="268" y="-10"/>
      <point x="325" y="37"/>
      <point x="325" y="120" type="curve"/>
      <point x="301" y="120" type="line"/>
      <point x="301" y="0" type="line"/>
      <point x="423" y="0" type="line"/>
      <point x="423" y="330" type="line" smooth="yes"/>
      <point x="423" y="454"/>
      <point x="325" y="480"/>
      <point x="236" y="480" type="curve" smooth="yes"/>
      <point x="101" y="480"/>
      <point x="36" y="421"/>
      <point x="36" y="293" type="curve"/>
      <point x="160" y="293" type="line"/>
      <point x="160" y="367"/>
      <point x="187" y="400"/>
      <point x="236" y="400" type="curve" smooth="yes"/>
      <point x="279" y="400"/>
      <point x="301" y="380"/>
      <point x="301" y="346" type="curve" smooth="yes"/>
      <point x="301" y="228"/>
      <point x="37" y="312"/>
    </contour>
    <contour>
      <point x="226" y="72" type="curve" smooth="yes"/>
      <point x="191" y="72"/>
      <point x="161" y="95"/>
      <point x="161" y="130" type="curve" smooth="yes"/>
      <point x="161" y="165"/>
      <point x="193" y="177"/>
      <point x="225" y="186" type="curve" smooth="yes"/>
      <point x="269" y="198"/>
      <point x="326" y="215"/>
      <point x="326" y="279" type="curve"/>
      <point x="301" y="279" type="line"/>
      <point x="301" y="181" type="line" smooth="yes"/>
      <point x="301" y="103"/>
      <point x="271" y="72"/>
    </contour>
    <contour>
      <point x="367" y="-240" type="curve" smooth="yes"/>
      <point x="449" y="-240" type="line"/>
      <point x="449" y="-150" type="line"/>
      <point x="391" y="-150" type="line" smooth="yes"/>
      <point x="373" y="-150"/>
      <point x="367" y="-140"/>
      <point x="374" y="-123" type="curve" smooth="yes"/>
      <point x="423" y="0" type="line"/>
      <point x="369" y="38" type="line"/>
      <point x="300" y="-135" type="line" smooth="yes"/>
      <point x="293" y="-153"/>
      <point x="289" y="-169"/>
      <point x="289" y="-183" type="curve" smooth="yes"/>
      <point x="289" y="-221"/>
      <point x="316" y="-240"/>
    </contour>
  </outline>
</glyph>
<glyph name="dcroat" format="2">
  <advance width="496"/>
  <unicode hex="0111"/>
  <outline>
    <component base="d" identifier="4AFB4D00"/>
    <contour>
      <point x="160" y="560" type="line"/>
      <point x="480" y="560" type="line"/>
      <point x="480" y="620" type="line"/>
      <point x="160" y="620" type="line"/>
    </contour>
  </outline>
</glyph>
<glyph name="Eogonek" format="2">
  <advance width="500"/>
  <unicode hex="0118"/>
  <outline>
    <contour>
      <point x="66" y="0" type="line"/>
      <point x="206" y="0" type="line"/>
      <point x="206" y="700" type="line"/>
      <point x="66" y="700" type="line"/>
    </contour>
    <contour>
      <point x="134" y="0" type="line"/>
      <point x="460" y="0" type="line"/>
      <point x="460" y="90" type="line"/>
      <point x="134" y="90" type="line"/>
    </contour>
    <contour>
      <point x="134" y="380" type="line"/>
      <point x="420" y="380" type="line"/>
      <point x="420" y="470" type="line"/>
      <point x="134" y="470" type="line"/>
    </contour>
    <contour>
      <point x="134" y="610" type="line"/>
      <point x="460" y="610" type="line"/>
      <point x="460" y="700" type="line"/>
      <point x="134" y="700" type="line"/>
    </contour>
    <contour>
      <point x="404" y="-240" type="curve" smooth="yes"/>
      <point x="496" y="-240" type="line"/>
      <point x="496" y="-150" type="line"/>
      <point x="428" y="-150" type="line" smooth="yes"/>
      <point x="410" y="-150"/>
      <point x="404" y="-140"/>
      <point x="411" y="-123" type="curve" smooth="yes"/>
      <point x="460" y="0" type="line"/>
      <point x="406" y="38" type="line"/>
      <point x="337" y="-135" type="line" smooth="yes"/>
      <point x="330" y="-153"/>
      <point x="326" y="-169"/>
      <point x="326" y="-183" type="curve" smooth="yes"/>
      <point x="326" y="-221"/>
      <point x="353" y="-240"/>
    </contour>
  </outline>
</glyph>
<glyph name="eogonek" format="2">
  <advance width="478"/>
  <unicode hex="0119"/>
  <outline>
    <contour>
      <point x="250" y="-10" type="curve"/>
      <point x="250" y="70" type="line"/>
      <point x="204" y="70"/>
      <point x="166" y="116"/>
      <point x="166" y="235" type="curve" smooth="yes"/>
      <point x="166" y="352"/>
      <point x="202" y="400"/>
      <point x="250" y="400" type="curve"/>
      <point x="250" y="480" type="line"/>
      <point x="123" y="480"/>
      <point x="36" y="409"/>
      <point x="36" y="235" type="curve" smooth="yes"/>
      <point x="36" y="81"/>
      <point x="105" y="-10"/>
    </contour>
    <contour>
      <point x="92" y="236" type="line"/>
      <point x="413" y="236" type="line"/>
      <point x="413" y="301" type="line"/>
      <point x="92" y="301" type="line"/>
    </contour>
    <contour>
      <point x="250" y="70" type="curve"/>
      <point x="250" y="-10" type="line"/>
      <point x="376" y="-10"/>
      <point x="436" y="59"/>
      <point x="436" y="177" type="curve"/>
      <point x="312" y="177" type="line"/>
      <point x="312" y="101"/>
      <point x="288" y="70"/>
    </contour>
    <contour>
      <point x="316" y="236" type="curve"/>
      <point x="442" y="236" type="line"/>
      <point x="442" y="425"/>
      <point x="362" y="480"/>
      <point x="250" y="480" type="curve"/>
      <point x="250" y="400" type="line"/>
      <point x="295" y="400"/>
      <point x="316" y="358"/>
    </contour>
    <contour>
      <point x="329" y="-240" type="curve" smooth="yes"/>
      <point x="411" y="-240" type="line"/>
      <point x="411" y="-150" type="line"/>
      <point x="353" y="-150" type="line" smooth="yes"/>
      <point x="335" y="-150"/>
      <point x="329" y="-140"/>
      <point x="336" y="-123" type="curve" smooth="yes"/>
      <point x="419" y="84" type="line"/>
      <point x="365" y="122" type="line"/>
      <point x="262" y="-135" type="line" smooth="yes"/>
      <point x="255" y="-153"/>
      <point x="251" y="-169"/>
      <point x="251" y="-183" type="curve" smooth="yes"/>
      <point x="251" y="-221"/>
      <point x="278" y="-240"/>
    </contour>
  </outline>
</glyph>
<glyph name="Hbar" format="2">
  <advance width="592"/>
  <unicode hex="0126"/>
  <outline>
    <contour>
      <point x="386" y="0" type="line"/>
      <point x="526" y="0" type="line"/>
      <point x="526" y="700" type="line"/>
      <point x="386" y="700" type="line"/>
    </contour>
    <contour>
      <point x="66" y="0" type="line"/>
      <point x="206" y="0" type="line"/>
      <point x="206" y="700" type="line"/>
      <point x="66" y="700" type="line"/>
    </contour>
    <contour>
      <point x="168" y="380" type="line"/>
      <point x="425" y="380" type="line"/>
      <point x="425" y="470" type="line"/>
      <point x="168" y="470" type="line"/>
    </contour>
    <contour>
      <point x="20" y="560" type="line"/>
      <point x="572" y="560" type="line"/>
      <point x="572" y="620" type="line"/>
      <point x="20" y="620" type="line"/>
    </contour>
  </outline>
</glyph>
<glyph name="hbar" format="2">
  <advance width="600"/>
  <unicode hex="0127"/>
  <outline>
    <component base="h" identifier="921A06A2"/>
    <contour>
      <point x="16" y="560" type="line"/>
      <point x="336" y="560" type="line"/>
      <point x="336" y="620" type="line"/>
      <point x="16" y="620" type="line"/>
    </contour>
  </outline>
</glyph>
<glyph name="Iogonek" format="2">
  <advance width="280"/>
  <unicode hex="012E"/>
  <outline>
    <contour>
      <point x="70" y="0" type="line"/>
      <point x="210" y="0" type="line"/>
      <point x="210" y="700" type="line"/>
      <point x="70" y="700" type="line"/>
    </contour>
    <contour>
      <point x="154" y="-240" type="curve" smooth="yes"/>
      <point x="246" y="-240" type="line"/>
      <point x="246" y="-150" type="line"/>
      <point x="178" y="-150" type="line" smooth="yes"/>
      <point x="160" y="-150"/>
      <point x="154" y="-140"/>
      <point x="161" y="-123" type="curve" smooth="yes"/>
      <point x="210" y="0" type="line"/>
      <point x="156" y="38" type="line"/>
      <point x="87" y="-135" type="line" smooth="yes"/>
      <point x="80" y="-153"/>
      <point x="76" y="-169"/>
      <point x="76" y="-183" type="curve" smooth="yes"/>
      <point x="76" y="-221"/>
      <point x="103" y="-240"/>
    </contour>
  </outline>
</glyph>
<glyph name="iogonek" format="2">
  <advance width="244"/>
  <unicode hex="012F"/>
  <outline>
    <contour>
      <point x="56" y="0" type="line"/>
      <point x="188" y="0" type="line"/>
      <point x="188" y="470" type="line"/>
      <point x="56" y="470" type="line"/>
    </contour>
    <contour>
      <point x="56" y="530" type="line"/>
      <point x="188" y="530" type="line"/>
      <point x="188" y="650" type="line"/>
      <point x="56" y="650" type="line"/>
    </contour>
    <contour>
      <point x="132" y="-240" type="curve" smooth="yes"/>
      <point x="214" y="-240" type="line"/>
      <point x="214" y="-150" type="line"/>
      <point x="156" y="-150" type="line" smooth="yes"/>
      <point x="138" y="-150"/>
      <point x="132" y="-140"/>
      <point x="139" y="-123" type="curve" smooth="yes"/>
      <point x="188" y="0" type="line"/>
      <point x="134" y="38" type="line"/>
      <point x="65" y="-135" type="line" smooth="yes"/>
      <point x="58" y="-153"/>
      <point x="54" y="-169"/>
      <point x="54" y="-183" type="curve" smooth="yes"/>
      <point x="54" y="-221"/>
      <point x="81" y="-240"/>
    </contour>
  </outline>
</glyph>
<glyph name="dotlessi" format="2">
  <advance width="244"/>
  <unicode hex="0131"/>
  <anchor x="122" y="0" name="bottom"/>
  <anchor x="188" y="0" name="ogonek"/>
  <anchor x="122" y="470" name="top"/>
  <outline>
    <contour>
      <point x="56" y="0" type="line"/>
      <point x="188" y="0" type="line"/>
      <point x="188" y="470" type="line"/>
      <point x="56" y="470" type="line"/>
    </contour>
  </outline>
</glyph>
<glyph name="Lslash" format="2">
  <advance width="396"/>
  <unicode hex="0141"/>
  <outline>
    <component base="L" xOffset="10" identifier="8F19F9DC"/>
    <contour>
      <point x="303" y="424" type="line"/>
      <point x="303" y="526" type="line"/>
      <point x="26" y="420" type="line"/>
      <point x="26" y="318" type="line"/>
    </contour>
  </outline>
</glyph>
<glyph name="lslash" format="2">
  <advance width="270"/>
  <unicode hex="0142"/>
  <guideline x="260" y="367" angle="90"/>
  <outline>
    <component base="l" identifier="C9268BEA"/>
    <contour>
      <point x="260" y="315" type="line"/>
      <point x="260" y="417" type="line"/>
      <point x="6" y="320" type="line"/>
      <point x="6" y="218" type="line"/>
    </contour>
  </outline>
</glyph>
<glyph name="OE" format="2">
  <advance width="707"/>
  <unicode hex="0152"/>
  <guideline x="512" y="350" angle="90"/>
  <outline>
    <contour>
      <point x="370" y="0" type="line"/>
      <point x="667" y="0" type="line"/>
      <point x="667" y="90" type="line"/>
      <point x="370" y="90" type="line"/>
    </contour>
    <contour>
      <point x="370" y="380" type="line"/>
      <point x="627" y="380" type="line"/>
      <point x="627" y="470" type="line"/>
      <point x="370" y="470" type="line"/>
    </contour>
    <contour>
      <point x="370" y="610" type="line"/>
      <point x="667" y="610" type="line"/>
      <point x="667" y="700" type="line"/>
      <point x="370" y="700" type="line"/>
    </contour>
    <contour>
      <point x="271" y="-10" type="curve" smooth="yes"/>
      <point x="411" y="-10"/>
      <point x="482" y="38"/>
      <point x="482" y="132" type="curve" smooth="yes"/>
      <point x="482" y="568" type="line" smooth="yes"/>
      <point x="482" y="662"/>
      <point x="411" y="710"/>
      <point x="271" y="710" type="curve" smooth="yes"/>
      <point x="132" y="710"/>
      <point x="60" y="661"/>
      <point x="60" y="568" type="curve" smooth="yes"/>
      <point x="60" y="132" type="line" smooth="yes"/>
      <point x="60" y="39"/>
      <point x="132" y="-10"/>
    </contour>
    <contour>
      <point x="271" y="70" type="curve" smooth="yes"/>
      <point x="231" y="70"/>
      <point x="200" y="85"/>
      <point x="200" y="132" type="curve" smooth="yes"/>
      <point x="200" y="568" type="line" smooth="yes"/>
      <point x="200" y="615"/>
      <point x="231" y="630"/>
      <point x="271" y="630" type="curve" smooth="yes"/>
      <point x="311" y="630"/>
      <point x="342" y="615"/>
      <point x="342" y="568" type="curve" smooth="yes"/>
      <point x="342" y="132" type="line" smooth="yes"/>
      <point x="342" y="85"/>
      <point x="311" y="70"/>
    </contour>
  </outline>
</glyph>
<glyph name="oe" format="2">
  <advance width="746"/>
  <unicode hex="0153"/>
  <outline>
    <contour>
      <point x="522" y="-10" type="curve"/>
      <point x="522" y="70" type="line"/>
      <point x="476" y="70"/>
      <point x="442" y="116"/>
      <point x="442" y="235" type="curve" smooth="yes"/>
      <point x="442" y="352"/>
      <point x="474" y="400"/>
      <point x="522" y="400" type="curve"/>
      <point x="522" y="480" type="line"/>
      <point x="395" y="480"/>
      <point x="320" y="409"/>
      <point x="320" y="235" type="curve" smooth="yes"/>
      <point x="320" y="81"/>
      <point x="377" y="-10"/>
    </contour>
    <contour>
      <point x="368" y="236" type="line"/>
      <point x="681" y="236" type="line"/>
      <point x="681" y="301" type="line"/>
      <point x="368" y="301" type="line"/>
    </contour>
    <contour>
      <point x="522" y="70" type="curve"/>
      <point x="522" y="-10" type="line"/>
      <point x="648" y="-10"/>
      <point x="704" y="59"/>
      <point x="704" y="177" type="curve"/>
      <point x="580" y="177" type="line"/>
      <point x="580" y="101"/>
      <point x="556" y="70"/>
    </contour>
    <contour>
      <point x="584" y="236" type="curve"/>
      <point x="710" y="236" type="line"/>
      <point x="710" y="425"/>
      <point x="630" y="480"/>
      <point x="522" y="480" type="curve"/>
      <point x="522" y="400" type="line"/>
      <point x="563" y="400"/>
      <point x="584" y="358"/>
    </contour>
    <contour>
      <point x="245" y="400" type="curve"/>
      <point x="245" y="480" type="line"/>
      <point x="138" y="480"/>
      <point x="36" y="409"/>
      <point x="36" y="235" type="curve" smooth="yes"/>
      <point x="36" y="81"/>
      <point x="116" y="-10"/>
      <point x="245" y="-10" type="curve"/>
      <point x="245" y="70" type="line"/>
      <point x="199" y="70"/>
      <point x="170" y="116"/>
      <point x="170" y="235" type="curve" smooth="yes"/>
      <point x="170" y="352"/>
      <point x="201" y="400"/>
    </contour>
    <contour>
      <point x="245" y="480" type="curve"/>
      <point x="245" y="400" type="line"/>
      <point x="289" y="400"/>
      <point x="320" y="352"/>
      <point x="320" y="235" type="curve" smooth="yes"/>
      <point x="320" y="116"/>
      <point x="291" y="70"/>
      <point x="245" y="70" type="curve"/>
      <point x="245" y="-10" type="line"/>
      <point x="384" y="-10"/>
      <point x="434" y="81"/>
      <point x="434" y="235" type="curve" smooth="yes"/>
      <point x="434" y="409"/>
      <point x="362" y="480"/>
    </contour>
  </outline>
</glyph>
<glyph name="Uogonek" format="2">
  <advance width="578"/>
  <unicode hex="0172"/>
  <outline>
    <contour>
      <point x="289" y="-10" type="curve" smooth="yes"/>
      <point x="447" y="-10"/>
      <point x="518" y="38"/>
      <point x="518" y="132" type="curve" smooth="yes"/>
      <point x="518" y="700" type="line"/>
      <point x="378" y="700" type="line"/>
      <point x="378" y="132" type="line" smooth="yes"/>
      <point x="378" y="85"/>
      <point x="347" y="70"/>
      <point x="289" y="70" type="curve" smooth="yes"/>
      <point x="231" y="70"/>
      <point x="200" y="85"/>
      <point x="200" y="132" type="curve" smooth="yes"/>
      <point x="200" y="700" type="line"/>
      <point x="60" y="700" type="line"/>
      <point x="60" y="132" type="line" smooth="yes"/>
      <point x="60" y="39"/>
      <point x="132" y="-10"/>
    </contour>
    <contour>
      <point x="421" y="-240" type="curve" smooth="yes"/>
      <point x="513" y="-240" type="line"/>
      <point x="513" y="-150" type="line"/>
      <point x="445" y="-150" type="line" smooth="yes"/>
      <point x="427" y="-150"/>
      <point x="421" y="-140"/>
      <point x="428" y="-123" type="curve" smooth="yes"/>
      <point x="509" y="80" type="line"/>
      <point x="440" y="80" type="line"/>
      <point x="354" y="-135" type="line" smooth="yes"/>
      <point x="347" y="-153"/>
      <point x="343" y="-169"/>
      <point x="343" y="-183" type="curve" smooth="yes"/>
      <point x="343" y="-221"/>
      <point x="370" y="-240"/>
    </contour>
  </outline>
</glyph>
<glyph name="uni018F" format="2">
  <advance width="582"/>
  <unicode hex="018F"/>
  <outline>
    <contour>
      <point x="291" y="-10" type="curve" smooth="yes"/>
      <point x="451" y="-10"/>
      <point x="522" y="38"/>
      <point x="522" y="132" type="curve" smooth="yes"/>
      <point x="522" y="568" type="line" smooth="yes"/>
      <point x="522" y="662"/>
      <point x="451" y="710"/>
      <point x="291" y="710" type="curve" smooth="yes"/>
      <point x="131" y="710"/>
      <point x="60" y="662"/>
      <point x="60" y="568" type="curve" smooth="yes"/>
      <point x="60" y="418" type="line"/>
      <point x="200" y="418" type="line"/>
      <point x="200" y="568" type="line" smooth="yes"/>
      <point x="200" y="615"/>
      <point x="231" y="630"/>
      <point x="291" y="630" type="curve" smooth="yes"/>
      <point x="351" y="630"/>
      <point x="382" y="615"/>
      <point x="382" y="568" type="curve" smooth="yes"/>
      <point x="382" y="132" type="line" smooth="yes"/>
      <point x="382" y="85"/>
      <point x="351" y="70"/>
      <point x="291" y="70" type="curve" smooth="yes"/>
      <point x="231" y="70"/>
      <point x="200" y="85"/>
      <point x="200" y="132" type="curve" smooth="yes"/>
      <point x="200" y="340" type="line"/>
      <point x="60" y="340" type="line"/>
      <point x="60" y="132" type="line" smooth="yes"/>
      <point x="60" y="38"/>
      <point x="131" y="-10"/>
    </contour>
    <contour>
      <point x="116" y="250" type="line"/>
      <point x="402" y="250" type="line"/>
      <point x="402" y="340" type="line"/>
      <point x="116" y="340" type="line"/>
    </contour>
  </outline>
</glyph>
<glyph name="uni0237" format="2">
  <advance width="244"/>
  <unicode hex="0237"/>
  <anchor x="107" y="-240" name="bottom"/>
  <anchor x="122" y="470" name="top"/>
  <outline>
    <contour>
      <point x="56" y="-102" type="line"/>
      <point x="188" y="-102" type="line"/>
      <point x="188" y="470" type="line"/>
      <point x="56" y="470" type="line"/>
    </contour>
    <contour>
      <point x="-32" y="-240" type="line"/>
      <point x="30" y="-240" type="line" smooth="yes"/>
      <point x="153" y="-240"/>
      <point x="188" y="-209"/>
      <point x="188" y="-102" type="curve"/>
      <point x="56" y="-102" type="line"/>
      <point x="56" y="-135"/>
      <point x="45" y="-150"/>
      <point x="20" y="-150" type="curve" smooth="yes"/>
      <point x="-32" y="-150" type="line"/>
    </contour>
  </outline>
</glyph>
<glyph name="uni0259" format="2">
  <advance width="478"/>
  <unicode hex="0259"/>
  <outline>
    <contour>
      <point x="228" y="480" type="curve"/>
      <point x="228" y="400" type="line"/>
      <point x="274" y="400"/>
      <point x="312" y="364"/>
      <point x="312" y="245" type="curve" smooth="yes"/>
      <point x="312" y="118"/>
      <point x="276" y="70"/>
      <point x="228" y="70" type="curve"/>
      <point x="228" y="-10" type="line"/>
      <point x="355" y="-10"/>
      <point x="442" y="61"/>
      <point x="442" y="245" type="curve" smooth="yes"/>
      <point x="442" y="399"/>
      <point x="373" y="480"/>
    </contour>
    <contour>
      <point x="386" y="244" type="line"/>
      <point x="65" y="244" type="line"/>
      <point x="65" y="179" type="line"/>
      <point x="386" y="179" type="line"/>
    </contour>
    <contour>
      <point x="228" y="400" type="curve"/>
      <point x="228" y="480" type="line"/>
      <point x="102" y="480"/>
      <point x="42" y="421"/>
      <point x="42" y="303" type="curve"/>
      <point x="166" y="303" type="line"/>
      <point x="166" y="379"/>
      <point x="190" y="400"/>
    </contour>
    <contour>
      <point x="162" y="244" type="curve"/>
      <point x="36" y="244" type="line"/>
      <point x="36" y="45"/>
      <point x="116" y="-10"/>
      <point x="228" y="-10" type="curve"/>
      <point x="228" y="70" type="line"/>
      <point x="183" y="70"/>
      <point x="162" y="112"/>
    </contour>
  </outline>
</glyph>
<glyph name="acutecomb" format="2">
  <advance width="0"/>
  <unicode hex="0301"/>
  <guideline x="66" y="560"/>
  <anchor x="70" y="470" name="_top"/>
  <anchor x="109" y="770" name="top"/>
  <outline>
    <contour>
      <point x="20" y="530" type="line"/>
      <point x="120" y="530" type="line"/>
      <point x="208" y="770" type="line"/>
      <point x="108" y="770" type="line"/>
    </contour>
  </outline>
</glyph>
<glyph name="tildecomb" format="2">
  <advance width="0"/>
  <unicode hex="0303"/>
  <guideline x="261" y="530"/>
  <guideline x="339" y="675" angle="180"/>
  <anchor x="197" y="470" name="_top"/>
  <anchor x="197" y="685" name="top"/>
  <outline>
    <contour>
      <point x="20" y="591" type="curve" smooth="yes"/>
      <point x="20" y="530" type="line"/>
      <point x="90" y="530" type="line"/>
      <point x="90" y="571" type="line" smooth="yes"/>
      <point x="90" y="608"/>
      <point x="106" y="614"/>
      <point x="121" y="614" type="curve" smooth="yes"/>
      <point x="138" y="614"/>
      <point x="149" y="602"/>
      <point x="169" y="579" type="curve" smooth="yes"/>
      <point x="176" y="571" type="line" smooth="yes"/>
      <point x="201" y="542"/>
      <point x="228" y="521"/>
      <point x="279" y="521" type="curve" smooth="yes"/>
      <point x="345" y="521"/>
      <point x="374" y="557"/>
      <point x="374" y="614" type="curve" smooth="yes"/>
      <point x="374" y="675" type="line"/>
      <point x="304" y="675" type="line"/>
      <point x="304" y="634" type="line" smooth="yes"/>
      <point x="304" y="597"/>
      <point x="288" y="591"/>
      <point x="273" y="591" type="curve" smooth="yes"/>
      <point x="256" y="591"/>
      <point x="246" y="602"/>
      <point x="225" y="626" type="curve" smooth="yes"/>
      <point x="218" y="634" type="line" smooth="yes"/>
      <point x="192" y="664"/>
      <point x="165" y="684"/>
      <point x="115" y="684" type="curve" smooth="yes"/>
      <point x="49" y="684"/>
      <point x="20" y="648"/>
    </contour>
  </outline>
</glyph>
<glyph name="uni0306" format="2">
  <advance width="0"/>
  <unicode hex="0306"/>
  <anchor x="165" y="470" name="_top"/>
  <anchor x="165" y="678" name="top"/>
  <outline>
    <contour>
      <point x="225" y="678" type="curve"/>
      <point x="314" y="678" type="line"/>
      <point x="314" y="591"/>
      <point x="260" y="530"/>
      <point x="165" y="530" type="curve" smooth="yes"/>
      <point x="71" y="530"/>
      <point x="16" y="591"/>
      <point x="16" y="678" type="curve"/>
      <point x="105" y="678" type="line"/>
      <point x="105" y="640"/>
      <point x="125" y="612"/>
      <point x="165" y="612" type="curve" smooth="yes"/>
      <point x="206" y="612"/>
      <point x="225" y="640"/>
    </contour>
  </outline>
</glyph>
<glyph name="uni030A" format="2">
  <advance width="0"/>
  <unicode hex="030A"/>
  <guideline x="69" y="530"/>
  <anchor x="157" y="470" name="_top"/>
  <anchor x="157" y="811" name="top"/>
  <outline>
    <contour>
      <point x="157" y="530" type="curve" smooth="yes"/>
      <point x="234" y="530"/>
      <point x="297" y="593"/>
      <point x="297" y="670" type="curve" smooth="yes"/>
      <point x="297" y="747"/>
      <point x="234" y="810"/>
      <point x="157" y="810" type="curve" smooth="yes"/>
      <point x="80" y="810"/>
      <point x="17" y="747"/>
      <point x="17" y="670" type="curve" smooth="yes"/>
      <point x="17" y="593"/>
      <point x="80" y="530"/>
    </contour>
    <contour>
      <point x="157" y="612" type="curve" smooth="yes"/>
      <point x="125" y="612"/>
      <point x="99" y="638"/>
      <point x="99" y="670" type="curve" smooth="yes"/>
      <point x="99" y="702"/>
      <point x="125" y="728"/>
      <point x="157" y="728" type="curve" smooth="yes"/>
      <point x="189" y="728"/>
      <point x="215" y="702"/>
      <point x="215" y="670" type="curve" smooth="yes"/>
      <point x="215" y="638"/>
      <point x="189" y="612"/>
    </contour>
  </outline>
</glyph>
<glyph name="uni030B" format="2">
  <advance width="0"/>
  <unicode hex="030B"/>
  <anchor x="134" y="470" name="_top"/>
  <anchor x="184" y="770" name="top"/>
  <outline>
    <contour>
      <point x="20" y="530" type="line"/>
      <point x="110" y="530" type="line"/>
      <point x="198" y="770" type="line"/>
      <point x="108" y="770" type="line"/>
    </contour>
    <contour>
      <point x="170" y="530" type="line"/>
      <point x="260" y="530" type="line"/>
      <point x="348" y="770" type="line"/>
      <point x="258" y="770" type="line"/>
    </contour>
  </outline>
</glyph>
<glyph name="uni030C" format="2">
  <advance width="0"/>
  <unicode hex="030C"/>
  <anchor x="157" y="470" name="_top"/>
  <anchor x="157" y="770" name="top"/>
  <outline>
    <contour>
      <point x="146" y="530" type="line"/>
      <point x="226" y="530" type="line"/>
      <point x="294" y="770" type="line"/>
      <point x="214" y="770" type="line"/>
    </contour>
    <contour>
      <point x="88" y="530" type="line"/>
      <point x="168" y="530" type="line"/>
      <point x="100" y="770" type="line"/>
      <point x="20" y="770" type="line"/>
    </contour>
  </outline>
</glyph>
<glyph name="uni0326" format="2">
  <advance width="0"/>
  <unicode hex="0326"/>
  <anchor x="85" y="0" name="_bottom"/>
  <anchor x="85" y="-240" name="bottom"/>
  <outline>
    <contour>
      <point x="27" y="-240" type="line"/>
      <point x="117" y="-240" type="line"/>
      <point x="134" y="-60" type="line"/>
      <point x="44" y="-60" type="line"/>
    </contour>
  </outline>
</glyph>
<glyph name="uni0327" format="2">
  <advance width="0"/>
  <unicode hex="0327"/>
  <anchor x="137" y="0" name="_bottom"/>
  <anchor x="137" y="-240" name="bottom"/>
  <outline>
    <contour>
      <point x="137" y="-180" type="curve"/>
      <point x="137" y="-240" type="line"/>
      <point x="156" y="-240" type="line" smooth="yes"/>
      <point x="206" y="-240"/>
      <point x="264" y="-221"/>
      <point x="264" y="-139" type="curve"/>
      <point x="194" y="-139" type="line"/>
      <point x="194" y="-164"/>
      <point x="179" y="-180"/>
    </contour>
    <contour>
      <point x="118" y="-240" type="curve" smooth="yes"/>
      <point x="137" y="-240" type="line"/>
      <point x="137" y="-180" type="line"/>
      <point x="95" y="-180"/>
      <point x="80" y="-164"/>
      <point x="80" y="-139" type="curve"/>
      <point x="10" y="-139" type="line"/>
      <point x="10" y="-204"/>
      <point x="48" y="-240"/>
    </contour>
    <contour>
      <point x="73" y="-108" type="line"/>
      <point x="141" y="-108" type="line"/>
      <point x="171" y="20" type="line"/>
      <point x="103" y="20" type="line"/>
    </contour>
    <contour>
      <point x="194" y="-139" type="curve"/>
      <point x="264" y="-139" type="line"/>
      <point x="264" y="-64"/>
      <point x="216" y="-48"/>
      <point x="166" y="-48" type="curve" smooth="yes"/>
      <point x="147" y="-48" type="line"/>
      <point x="137" y="-108" type="line"/>
      <point x="179" y="-108"/>
      <point x="194" y="-114"/>
    </contour>
  </outline>
</glyph>
<glyph name="uni0328" format="2">
  <advance width="0"/>
  <unicode hex="0328"/>
  <anchor x="128" y="0" name="_ogonek"/>
  <outline>
    <contour>
      <point x="108" y="-240" type="curve" smooth="yes"/>
      <point x="220" y="-240" type="line"/>
      <point x="220" y="-150" type="line"/>
      <point x="132" y="-150" type="line" smooth="yes"/>
      <point x="114" y="-150"/>
      <point x="108" y="-140"/>
      <point x="115" y="-123" type="curve" smooth="yes"/>
      <point x="179" y="38" type="line"/>
      <point x="110" y="38" type="line"/>
      <point x="41" y="-135" type="line" smooth="yes"/>
      <point x="34" y="-153"/>
      <point x="30" y="-169"/>
      <point x="30" y="-183" type="curve" smooth="yes"/>
      <point x="30" y="-221"/>
      <point x="57" y="-240"/>
    </contour>
  </outline>
</glyph>
<glyph name="uni1E9E" format="2">
  <advance width="628"/>
  <unicode hex="1E9E"/>
  <outline>
    <contour>
      <point x="66" y="700" type="line"/>
      <point x="66" y="0" type="line"/>
      <point x="206" y="0" type="line"/>
      <point x="206" y="700" type="line"/>
    </contour>
    <contour>
      <point x="94" y="700" type="line"/>
      <point x="94" y="610" type="line"/>
      <point x="522" y="610" type="line"/>
      <point x="522" y="700" type="line"/>
    </contour>
    <contour>
      <point x="392" y="610" type="line"/>
      <point x="292" y="409" type="line"/>
      <point x="292" y="319" type="line"/>
      <point x="377" y="319" type="line"/>
      <point x="522" y="610" type="line"/>
    </contour>
    <contour>
      <point x="376" y="90" type="curve"/>
      <point x="376" y="0" type="line"/>
      <point x="488" y="0"/>
      <point x="592" y="17"/>
      <point x="592" y="206" type="curve" smooth="yes"/>
      <point x="592" y="354"/>
      <point x="527" y="409"/>
      <point x="351" y="409" type="curve"/>
      <point x="351" y="319" type="line"/>
      <point x="409" y="319"/>
      <point x="452" y="285"/>
      <point x="452" y="196" type="curve" smooth="yes"/>
      <point x="452" y="142"/>
      <point x="436" y="90"/>
    </contour>
    <contour>
      <point x="286" y="0" type="line"/>
      <point x="376" y="0" type="line"/>
      <point x="376" y="90" type="line"/>
      <point x="286" y="90" type="line"/>
    </contour>
  </outline>
</glyph>
<glyph name="dagger" format="2">
  <advance width="249"/>
  <unicode hex="2020"/>
  <outline>
    <contour>
      <point x="92" y="700" type="line"/>
      <point x="92" y="421" type="line"/>
      <point x="157" y="421" type="line"/>
      <point x="157" y="700" type="line"/>
    </contour>
    <contour>
      <point x="229" y="640" type="line"/>
      <point x="20" y="640" type="line"/>
      <point x="20" y="575" type="line"/>
      <point x="229" y="575" type="line"/>
    </contour>
  </outline>
</glyph>
<glyph name="daggerdbl" format="2">
  <advance width="249"/>
  <unicode hex="2021"/>
  <outline>
    <contour>
      <point x="92" y="700" type="line"/>
      <point x="92" y="371" type="line"/>
      <point x="157" y="371" type="line"/>
      <point x="157" y="700" type="line"/>
    </contour>
    <contour>
      <point x="229" y="640" type="line"/>
      <point x="20" y="640" type="line"/>
      <point x="20" y="575" type="line"/>
      <point x="229" y="575" type="line"/>
    </contour>
    <contour>
      <point x="229" y="496" type="line"/>
      <point x="20" y="496" type="line"/>
      <point x="20" y="431" type="line"/>
      <point x="229" y="431" type="line"/>
    </contour>
  </outline>
</glyph>
<glyph name="perthousand" format="2">
  <advance width="1039"/>
  <unicode hex="2030"/>
  <outline>
    <contour>
      <point x="195" y="601" type="curve" smooth="yes"/>
      <point x="195" y="509" type="line" smooth="yes"/>
      <point x="195" y="467"/>
      <point x="178" y="454"/>
      <point x="158" y="454" type="curve" smooth="yes"/>
      <point x="139" y="454"/>
      <point x="122" y="467"/>
      <point x="122" y="509" type="curve" smooth="yes"/>
      <point x="122" y="601" type="line" smooth="yes"/>
      <point x="122" y="643"/>
      <point x="139" y="656"/>
      <point x="158" y="656" type="curve" smooth="yes"/>
      <point x="178" y="656"/>
      <point x="195" y="643"/>
    </contour>
    <contour>
      <point x="30" y="611" type="curve" smooth="yes"/>
      <point x="30" y="499" type="line"/>
      <point x="30" y="421"/>
      <point x="67" y="400"/>
      <point x="158" y="400" type="curve" smooth="yes"/>
      <point x="250" y="400"/>
      <point x="287" y="421"/>
      <point x="287" y="499" type="curve" smooth="yes"/>
      <point x="287" y="611" type="line" smooth="yes"/>
      <point x="287" y="688"/>
      <point x="250" y="710"/>
      <point x="158" y="710" type="curve" smooth="yes"/>
      <point x="67" y="710"/>
      <point x="30" y="688"/>
    </contour>
    <contour>
      <point x="66" y="0" type="line"/>
      <point x="207" y="0" type="line"/>
      <point x="646" y="700" type="line"/>
      <point x="505" y="700" type="line"/>
    </contour>
    <contour>
      <point x="600" y="191" type="curve" smooth="yes"/>
      <point x="600" y="99" type="line" smooth="yes"/>
      <point x="600" y="57"/>
      <point x="583" y="44"/>
      <point x="563" y="44" type="curve" smooth="yes"/>
      <point x="544" y="44"/>
      <point x="527" y="57"/>
      <point x="527" y="99" type="curve" smooth="yes"/>
      <point x="527" y="191" type="line" smooth="yes"/>
      <point x="527" y="233"/>
      <point x="544" y="246"/>
      <point x="563" y="246" type="curve" smooth="yes"/>
      <point x="583" y="246"/>
      <point x="600" y="233"/>
    </contour>
    <contour>
      <point x="435" y="201" type="curve" smooth="yes"/>
      <point x="435" y="89" type="line"/>
      <point x="435" y="11"/>
      <point x="472" y="-10"/>
      <point x="563" y="-10" type="curve" smooth="yes"/>
      <point x="655" y="-10"/>
      <point x="692" y="11"/>
      <point x="692" y="89" type="curve" smooth="yes"/>
      <point x="692" y="201" type="line" smooth="yes"/>
      <point x="692" y="278"/>
      <point x="655" y="300"/>
      <point x="563" y="300" type="curve" smooth="yes"/>
      <point x="472" y="300"/>
      <point x="435" y="278"/>
    </contour>
    <contour>
      <point x="917" y="191" type="curve" smooth="yes"/>
      <point x="917" y="99" type="line" smooth="yes"/>
      <point x="917" y="57"/>
      <point x="900" y="44"/>
      <point x="880" y="44" type="curve" smooth="yes"/>
      <point x="861" y="44"/>
      <point x="844" y="57"/>
      <point x="844" y="99" type="curve" smooth="yes"/>
      <point x="844" y="191" type="line" smooth="yes"/>
      <point x="844" y="233"/>
      <point x="861" y="246"/>
      <point x="880" y="246" type="curve" smooth="yes"/>
      <point x="900" y="246"/>
      <point x="917" y="233"/>
    </contour>
    <contour>
      <point x="752" y="201" type="curve" smooth="yes"/>
      <point x="752" y="89" type="line"/>
      <point x="752" y="11"/>
      <point x="789" y="-10"/>
      <point x="880" y="-10" type="curve" smooth="yes"/>
      <point x="972" y="-10"/>
      <point x="1009" y="11"/>
      <point x="1009" y="89" type="curve" smooth="yes"/>
      <point x="1009" y="201" type="line" smooth="yes"/>
      <point x="1009" y="278"/>
      <point x="972" y="300"/>
      <point x="880" y="300" type="curve" smooth="yes"/>
      <point x="789" y="300"/>
      <point x="752" y="278"/>
    </contour>
  </outline>
</glyph>
<glyph name="guilsinglleft" format="2">
  <advance width="198"/>
  <unicode hex="2039"/>
  <outline>
    <contour>
      <point x="20" y="272" type="line"/>
      <point x="120" y="272" type="line"/>
      <point x="178" y="470" type="line"/>
      <point x="88" y="470" type="line"/>
    </contour>
    <contour>
      <point x="20" y="272" type="line"/>
      <point x="88" y="74" type="line"/>
      <point x="178" y="74" type="line"/>
      <point x="120" y="272" type="line"/>
    </contour>
  </outline>
</glyph>
<glyph name="guilsinglright" format="2">
  <advance width="198"/>
  <unicode hex="203A"/>
  <outline>
    <contour>
      <point x="178" y="272" type="line"/>
      <point x="110" y="470" type="line"/>
      <point x="20" y="470" type="line"/>
      <point x="78" y="272" type="line"/>
    </contour>
    <contour>
      <point x="178" y="272" type="line"/>
      <point x="78" y="272" type="line"/>
      <point x="20" y="74" type="line"/>
      <point x="110" y="74" type="line"/>
    </contour>
  </outline>
</glyph>
<glyph name="minus" format="2">
  <advance width="312"/>
  <unicode hex="2212"/>
  <outline>
    <contour>
      <point x="296" y="375" type="line"/>
      <point x="16" y="375" type="line"/>
      <point x="16" y="285" type="line"/>
      <point x="296" y="285" type="line"/>
    </contour>
  </outline>
</glyph>
<glyph name="uni274C" format="2">
  <advance width="776"/>
  <unicode hex="274C"/>
  <outline>
    <contour>
      <point x="657" y="-18" type="line"/>
      <point x="756" y="81" type="line"/>
      <point x="492" y="345" type="line"/>
      <point x="756" y="609" type="line"/>
      <point x="657" y="708" type="line"/>
      <point x="393" y="444" type="line"/>
      <point x="119" y="718" type="line"/>
      <point x="20" y="619" type="line"/>
      <point x="294" y="345" type="line"/>
      <point x="20" y="71" type="line"/>
      <point x="119" y="-28" type="line"/>
      <point x="393" y="246" type="line"/>
    </contour>
  </outline>
</glyph>
<glyph name="uniA78B" format="2">
  <advance width="196"/>
  <unicode hex="A78B"/>
  <outline>
    <contour>
      <point x="43" y="410" type="line"/>
      <point x="153" y="410" type="line"/>
      <point x="158" y="700" type="line"/>
      <point x="38" y="700" type="line"/>
    </contour>
  </outline>
</glyph>
<glyph name="uniA78C" format="2">
  <advance width="196"/>
  <unicode hex="A78C"/>
  <outline>
    <contour>
      <point x="42" y="470" type="line"/>
      <point x="154" y="470" type="line"/>
      <point x="158" y="700" type="line"/>
      <point x="38" y="700" type="line"/>
    </contour>
  </outline>
</glyph>
<glyph name=".notdef" format="2">
  <advance width="600"/>
  <outline>
    <contour>
      <point x="300" y="-10" type="curve" smooth="yes"/>
      <point x="455" y="-10"/>
      <point x="580" y="115"/>
      <point x="580" y="270" type="curve" smooth="yes"/>
      <point x="580" y="425"/>
      <point x="455" y="550"/>
      <point x="300" y="550" type="curve" smooth="yes"/>
      <point x="145" y="550"/>
      <point x="20" y="425"/>
      <point x="20" y="270" type="curve" smooth="yes"/>
      <point x="20" y="115"/>
      <point x="145" y="-10"/>
    </contour>
    <contour>
      <point x="302" y="93" type="curve" smooth="yes"/>
      <point x="235" y="93"/>
      <point x="164" y="139"/>
      <point x="164" y="206" type="curve" smooth="yes"/>
      <point x="164" y="225"/>
      <point x="176" y="235"/>
      <point x="189" y="235" type="curve" smooth="yes"/>
      <point x="201" y="235"/>
      <point x="215" y="227"/>
      <point x="223" y="211" type="curve" smooth="yes"/>
      <point x="228" y="201"/>
      <point x="246" y="159"/>
      <point x="302" y="159" type="curve" smooth="yes"/>
      <point x="357" y="159"/>
      <point x="376" y="201"/>
      <point x="381" y="211" type="curve" smooth="yes"/>
      <point x="388" y="227"/>
      <point x="402" y="235"/>
      <point x="414" y="235" type="curve" smooth="yes"/>
      <point x="427" y="235"/>
      <point x="438" y="225"/>
      <point x="438" y="206" type="curve" smooth="yes"/>
      <point x="438" y="140"/>
      <point x="370" y="93"/>
    </contour>
    <contour>
      <point x="194" y="265" type="curve" smooth="yes"/>
      <point x="176" y="265"/>
      <point x="163" y="274"/>
      <point x="163" y="294" type="curve" smooth="yes"/>
      <point x="163" y="311"/>
      <point x="176" y="325"/>
      <point x="194" y="325" type="curve" smooth="yes"/>
      <point x="214" y="325"/>
      <point x="223" y="311"/>
      <point x="223" y="294" type="curve" smooth="yes"/>
      <point x="223" y="274"/>
      <point x="214" y="265"/>
    </contour>
    <contour>
      <point x="302" y="213" type="curve" smooth="yes"/>
      <point x="284" y="213"/>
      <point x="268" y="221"/>
      <point x="268" y="238" type="curve" smooth="yes"/>
      <point x="269" y="360" type="line"/>
      <point x="258" y="359"/>
      <point x="245" y="358"/>
      <point x="230" y="358" type="curve" smooth="yes"/>
      <point x="168" y="358"/>
      <point x="160" y="369"/>
      <point x="160" y="384" type="curve" smooth="yes"/>
      <point x="160" y="399"/>
      <point x="165" y="417"/>
      <point x="189" y="421" type="curve" smooth="yes"/>
      <point x="210" y="424"/>
      <point x="260" y="426"/>
      <point x="302" y="426" type="curve" smooth="yes"/>
      <point x="344" y="426"/>
      <point x="394" y="425"/>
      <point x="414" y="421" type="curve" smooth="yes"/>
      <point x="438" y="416"/>
      <point x="444" y="399"/>
      <point x="444" y="384" type="curve" smooth="yes"/>
      <point x="444" y="369"/>
      <point x="435" y="358"/>
      <point x="373" y="358" type="curve" smooth="yes"/>
      <point x="358" y="358"/>
      <point x="346" y="359"/>
      <point x="334" y="360" type="curve"/>
      <point x="336" y="238" type="line" smooth="yes"/>
      <point x="336" y="221"/>
      <point x="319" y="213"/>
    </contour>
    <contour>
      <point x="406" y="265" type="curve" smooth="yes"/>
      <point x="387" y="265"/>
      <point x="377" y="274"/>
      <point x="377" y="294" type="curve" smooth="yes"/>
      <point x="377" y="311"/>
      <point x="387" y="325"/>
      <point x="406" y="325" type="curve" smooth="yes"/>
      <point x="425" y="325"/>
      <point x="437" y="311"/>
      <point x="437" y="294" type="curve" smooth="yes"/>
      <point x="437" y="274"/>
      <point x="425" y="265"/>
    </contour>
  </outline>
</glyph>
<glyph name="tildecomb.narrow" format="2">
  <advance width="0"/>
  <guideline x="251" y="530"/>
  <guideline x="329" y="674" angle="180"/>
  <anchor x="182" y="470" name="_top"/>
  <anchor x="182" y="684" name="top"/>
  <outline>
    <contour>
      <point x="30" y="591" type="curve" smooth="yes"/>
      <point x="30" y="530" type="line"/>
      <point x="100" y="530" type="line"/>
      <point x="100" y="571" type="line" smooth="yes"/>
      <point x="100" y="595"/>
      <point x="104" y="614"/>
      <point x="117" y="614" type="curve" smooth="yes"/>
      <point x="126" y="614"/>
      <point x="134" y="607"/>
      <point x="153" y="582" type="curve" smooth="yes"/>
      <point x="163" y="569" type="line" smooth="yes"/>
      <point x="187" y="538"/>
      <point x="201" y="520"/>
      <point x="251" y="520" type="curve" smooth="yes"/>
      <point x="307" y="520"/>
      <point x="334" y="556"/>
      <point x="334" y="613" type="curve" smooth="yes"/>
      <point x="334" y="674" type="line"/>
      <point x="264" y="674" type="line"/>
      <point x="264" y="633" type="line" smooth="yes"/>
      <point x="264" y="609"/>
      <point x="260" y="590"/>
      <point x="247" y="590" type="curve" smooth="yes"/>
      <point x="238" y="590"/>
      <point x="230" y="596"/>
      <point x="211" y="622" type="curve" smooth="yes"/>
      <point x="201" y="635" type="line" smooth="yes"/>
      <point x="176" y="667"/>
      <point x="163" y="684"/>
      <point x="113" y="684" type="curve" smooth="yes"/>
      <point x="57" y="684"/>
      <point x="30" y="648"/>
    </contour>
  </outline>
</glyph>
<glyph name="uni0302.narrow" format="2">
  <advance width="0"/>
  <anchor x="157" y="470" name="_top"/>
  <anchor x="157" y="770" name="top"/>
  <outline>
    <contour>
      <point x="204" y="530" type="line"/>
      <point x="284" y="530" type="line"/>
      <point x="226" y="770" type="line"/>
      <point x="146" y="770" type="line"/>
    </contour>
    <contour>
      <point x="30" y="530" type="line"/>
      <point x="110" y="530" type="line"/>
      <point x="168" y="770" type="line"/>
      <point x="88" y="770" type="line"/>
    </contour>
  </outline>
</glyph>
<glyph name="uni0304.narrow" format="2">
  <advance width="0"/>
  <anchor x="126" y="470" name="_top"/>
  <anchor x="126" y="620" name="top"/>
  <outline>
    <contour>
      <point x="20" y="550" type="line"/>
      <point x="232" y="550" type="line"/>
      <point x="232" y="620" type="line"/>
      <point x="20" y="620" type="line"/>
    </contour>
  </outline>
</glyph>
<glyph name="uni0308.narrow" format="2">
  <advance width="0"/>
  <anchor x="146" y="470" name="_top"/>
  <anchor x="146" y="630" name="top"/>
  <outline>
    <contour>
      <point x="176" y="530" type="line"/>
      <point x="272" y="530" type="line"/>
      <point x="272" y="630" type="line"/>
      <point x="176" y="630" type="line"/>
    </contour>
    <contour>
      <point x="20" y="530" type="line"/>
      <point x="116" y="530" type="line"/>
      <point x="116" y="630" type="line"/>
      <point x="20" y="630" type="line"/>
    </contour>
  </outline>
</glyph>
<glyph name="uni030C.alt" format="2">
  <advance width="0"/>
  <anchor x="119" y="730" name="_topright"/>
  <outline>
    <contour>
      <point x="20" y="530" type="line"/>
      <point x="100" y="530" type="line"/>
      <point x="119" y="730" type="line"/>
      <point x="39" y="730" type="line"/>
    </contour>
  </outline>
</glyph>
